<?xml version="1.0" encoding="utf-8"?>
<!-- Generator: Adobe Illustrator 16.0.0, SVG Export Plug-In . SVG Version: 6.00 Build 0)  -->
<!DOCTYPE svg PUBLIC "-//W3C//DTD SVG 1.1//EN" "http://www.w3.org/Graphics/SVG/1.1/DTD/svg11.dtd">
<svg version="1.1" id="Capa_1" xmlns="http://www.w3.org/2000/svg" xmlns:xlink="http://www.w3.org/1999/xlink" x="0px" y="0px"
	 width="566.93px" height="566.93px" viewBox="0 0 566.93 566.93" enable-background="new 0 0 566.93 566.93" xml:space="preserve">
<g>
	<g>
		<path fill="#F0A85E" d="M0.185,171.607C0.16,171.928,0,172.211,0,172.544v221.843c0,0.332,0.16,0.615,0.185,0.961
			c0.062,0.812,0.259,1.577,0.481,2.379c0.233,0.825,0.492,1.602,0.887,2.354c0.148,0.283,0.148,0.592,0.32,0.862
			c0.407,0.653,0.925,1.184,1.43,1.738c0.16,0.173,0.271,0.369,0.444,0.542c0.998,0.974,2.156,1.713,3.401,2.293
			c0.296,0.135,0.604,0.246,0.912,0.357c1.368,0.505,2.785,0.85,4.239,0.85c0.013,0,0.013,0,0.024,0c0.013,0,0.013,0,0.013,0
			c1.417,0,2.847-0.345,4.228-0.862c0.395-0.148,0.752-0.32,1.134-0.506c0.382-0.196,0.788-0.283,1.158-0.518l95.602-59.749h58.086
			v36.974c0,20.385,16.589,36.974,36.974,36.974h98.596v57.161l-58.775,70.521c-4.351,5.226-3.647,12.99,1.578,17.353
			c2.316,1.923,5.102,2.859,7.888,2.859c3.55,0,7.05-1.516,9.489-4.437l57.926-69.511h31.193v61.623
			c0,6.803,5.51,12.324,12.324,12.324c6.816,0,12.325-5.521,12.325-12.324v-61.623h31.206l57.925,69.511
			c4.363,5.226,12.115,5.94,17.365,1.577c5.226-4.351,5.94-12.127,1.577-17.353l-58.775-70.521v-57.161h98.597
			c20.385,0,36.974-16.589,36.974-36.974V184.869c0-16.046-10.34-29.604-24.648-34.706V49.298c0-6.803-5.51-12.324-12.325-12.324
			H357.412h-75.697C276.205,15.776,257.078,0,234.167,0H49.298C22.11,0,0,22.11,0,49.298s22.11,49.298,49.298,49.298h184.869
			c22.911,0,42.038-15.775,47.548-36.974h63.373v86.272h-135.57c-20.385,0-36.974,16.589-36.974,36.974v36.974h-58.086
			l-95.589-59.75c-0.283-0.172-0.604-0.185-0.9-0.333c-0.727-0.382-1.479-0.629-2.279-0.863c-0.826-0.234-1.603-0.432-2.44-0.493
			c-0.32-0.024-0.604-0.185-0.925-0.185c-0.468,0-0.862,0.209-1.318,0.259c-0.851,0.086-1.651,0.222-2.465,0.493
			c-0.752,0.247-1.43,0.567-2.12,0.949c-0.678,0.37-1.294,0.776-1.897,1.282c-0.666,0.567-1.208,1.171-1.75,1.861
			c-0.271,0.345-0.653,0.567-0.9,0.949c-0.16,0.271-0.172,0.579-0.32,0.863c-0.395,0.751-0.653,1.528-0.887,2.354
			C0.443,170.03,0.246,170.794,0.185,171.607z M258.815,49.298c0,13.594-11.055,24.649-24.648,24.649H49.298
			c-13.594,0-24.648-11.055-24.648-24.649c0-13.594,11.055-24.649,24.648-24.649h184.869
			C247.761,24.649,258.815,35.705,258.815,49.298z M517.631,147.895H369.736V61.623h147.895V147.895z M332.764,419.035h73.947
			v49.298h-73.947V419.035z M197.193,184.869c0-6.791,5.521-12.325,12.324-12.325h147.895h172.544
			c6.804,0,12.325,5.534,12.325,12.325v197.193c0,6.791-5.521,12.325-12.325,12.325H209.518c-6.803,0-12.324-5.521-12.324-12.325
			V184.869z M123.246,246.491h49.298v73.948h-49.298V246.491z M24.649,194.777l73.947,46.217v84.929l-73.947,46.217V194.777z"/>
	</g>
</g>
<g>
	<g>
		<path fill="#F0A85E" d="M345.088,234.167v98.597c0,6.803,5.509,12.324,12.324,12.324h123.246c6.814,0,12.324-5.521,12.324-12.324
			v-98.597c0-6.803-5.51-12.325-12.324-12.325H357.412C350.597,221.842,345.088,227.364,345.088,234.167z M369.736,246.491h98.597
			v73.948h-98.597V246.491z"/>
	</g>
</g>
<g>
	<g>
		<circle fill="#F0A85E" cx="271.14" cy="283.465" r="24.649"/>
	</g>
</g>
</svg>
