<?xml version="1.0" encoding="utf-8"?>
<!-- Generator: Adobe Illustrator 16.0.0, SVG Export Plug-In . SVG Version: 6.00 Build 0)  -->
<!DOCTYPE svg PUBLIC "-//W3C//DTD SVG 1.1//EN" "http://www.w3.org/Graphics/SVG/1.1/DTD/svg11.dtd">
<svg version="1.1" id="Layer_1" xmlns="http://www.w3.org/2000/svg" xmlns:xlink="http://www.w3.org/1999/xlink" x="0px" y="0px"
	 width="566.93px" height="566.93px" viewBox="0 0 566.93 566.93" enable-background="new 0 0 566.93 566.93" xml:space="preserve">
<g>
	<g>
		<path fill="#F0A85E" d="M454.056,385.715c0-0.035,0.02-0.053,0.035-0.068c6.954-11.506,13.045-23.582,18.218-36.159
			c5.744,1.954,11.246,2.836,16.488,2.836c50.624,0,78.133-82,78.133-82c-5.397-0.45-10.537-0.658-15.397-0.658
			c-28.131,0-47.838,7.024-61.627,16.705c2.474-15.52,3.807-31.523,3.962-47.838c56.057-8.927,41.853-100.746,41.853-100.746
			c-23.529,9.802-38.443,21.739-47.683,33.928c-3.165-17.344-6.678-29.784-7.924-33.945c13.65-48.773-65.711-77.925-65.711-77.925
			c-7.007,63.072,25.295,83.853,44.62,90.598c1.748,5.96,7.733,27.891,10.19,58.401c-22.215-24.948-55.899-40.502-55.899-40.502
			c-16.473,85.088,32.561,110.184,52.854,116.819c-0.52,3.045-1.073,6.056-1.679,9.049c-3.651,17.907-9.049,35-16.091,51.16
			c-7.732-35.157-33.166-67.935-33.166-67.935c-54.707,69.11-24.36,115.305-8.34,132.312c-12.49,13.909-26.8,26.661-42.854,38.234
			c8.441-37.769-6.8-84.326-6.8-84.326c-71.387,44.551-62.84,95.537-53.772,118.738c-6.472,2.907-13.149,5.657-20,8.306
			c-8.218-3.165-16.176-6.522-23.858-10.052c6.748-24.379,9.377-74.656-64.137-112.062c0,0-8.806,37.665-2.509,71.904
			c-12.094-9.517-23.062-19.774-32.924-30.744c16.02-17.009,46.35-63.202-8.34-132.312c0,0-25.433,32.777-33.167,67.916
			c-6.973-15.969-12.318-32.854-15.969-50.536c-0.658-3.185-1.246-6.401-1.799-9.654c20.312-6.635,69.326-31.739,52.873-116.819
			c0,0-33.704,15.554-55.918,40.502c2.457-30.373,8.443-52.406,10.208-58.4c19.325-6.757,51.609-27.526,44.603-90.599
			c0,0-79.448,29.179-65.693,77.996c-1.263,4.238-4.774,16.635-7.923,33.893c-9.256-12.198-24.17-24.144-47.7-33.945
			c0,0-14.204,91.819,41.853,100.746c0.156,16.314,1.488,32.319,3.962,47.838c-13.789-9.68-33.496-16.705-61.627-16.705
			c-4.862,0-10,0.208-15.398,0.658c0,0,27.509,82,78.132,82c5.242,0,10.744-0.882,16.489-2.836
			c5.173,12.577,11.263,24.653,18.218,36.159c0.018,0.018,0.034,0.033,0.034,0.068c-7.907-2.007-16.696-3.15-26.437-3.15
			c-17.474,0-38.029,3.703-62.094,12.943c0,0,50.018,71.854,103.808,71.854c13.582,0,27.388-4.585,40.71-16.057
			c23.045,19.74,50.087,36.713,81.041,50.9c-23.616,7.146-49.066,13.011-76.334,17.597l3.91,23.287
			c38.772-6.505,74.12-15.57,105.988-27.163c31.869,11.593,67.216,20.658,105.988,27.163l3.91-23.287
			c-27.268-4.586-52.717-10.451-76.334-17.597c30.952-14.188,57.994-31.16,81.04-50.9c13.305,11.472,27.129,16.057,40.711,16.057
			c53.789,0,103.808-71.854,103.808-71.854c-24.064-9.24-44.62-12.943-62.094-12.943
			C470.753,382.564,461.963,383.707,454.056,385.715z M500.822,196.463c2.474-6.107,6.453-11.808,11.886-17.076
			c-1.608,13.045-5.173,23.209-10.276,29.17c-1.177,1.366-2.646,2.829-4.724,4.058C497.726,207.743,498.504,202.181,500.822,196.463
			z M491.307,317.756c8.252-11.541,20.883-19.034,37.683-22.424c-0.796,1.314-1.608,2.595-2.439,3.893
			c-6.229,9.533-12.646,16.92-19.118,21.99c-6.452,5.051-12.543,7.492-18.634,7.492c-1.106,0-2.249-0.087-3.408-0.26
			C486.808,325.057,488.729,321.371,491.307,317.756z M448.054,115.225c-3.201-3.971-5.71-8.659-7.525-14.049
			c8.789,6.853,14.603,13.816,16.678,20.174c0.259,0.778,0.485,1.618,0.658,2.543C454.489,121.782,451.081,118.962,448.054,115.225z
			 M463.676,258.489c-7.889-4.248-14.343-9.957-19.169-17c-6.09-8.876-9.637-19.897-10.64-32.967
			c16.661,12.613,27.284,25.753,30.035,37.138C464.68,248.834,465.198,253.073,463.676,258.489z M103.011,245.711
			c2.734-11.384,13.374-24.568,30.053-37.189c-1.003,13.062-4.55,24.092-10.64,32.967c-4.827,7.042-11.281,12.751-19.169,16.999
			C101.731,253.099,102.25,248.869,103.011,245.711z M109.707,121.392c2.076-6.358,7.872-13.348,16.678-20.217
			c-1.799,5.389-4.309,10.079-7.508,14.041c-3.027,3.746-6.436,6.566-9.81,8.677C109.24,122.983,109.464,122.153,109.707,121.392z
			 M64.533,208.591c-5.121-5.943-8.686-16.133-10.311-29.205c5.433,5.269,9.412,10.969,11.886,17.076
			c2.319,5.718,3.097,11.281,3.114,16.151C67.163,211.394,65.692,209.95,64.533,208.591z M78.131,328.707
			c-6.09,0-12.18-2.439-18.633-7.492c-6.471-5.068-12.89-12.457-19.119-21.99c-0.831-1.298-1.643-2.596-2.439-3.893
			c16.8,3.39,29.43,10.883,37.682,22.422c2.578,3.617,4.481,7.302,5.917,10.692C80.381,328.619,79.239,328.707,78.131,328.707z
			 M128.15,443.743c-15.727,0-34.862-10.034-55.347-28.998c-2.405-2.231-4.688-4.464-6.852-6.661
			c7.163-1.264,13.997-1.904,20.485-1.904c21.765,0,39.758,7.18,53.479,21.352c3.27,3.391,5.969,6.834,8.114,9.982
			C141.663,441.686,135.07,443.743,128.15,443.743z M158.93,360.314c-1.159,9.379-4.688,18.235-10.467,26.367
			c-4.792-4.724-6.557-9.412-7.474-13.062c-3.046-12.317,0.709-30.328,10.623-50.744c0.121-0.258,0.242-0.52,0.381-0.795
			C158.082,335.592,160.417,348.377,158.93,360.314z M238.066,469.09c-4.395-1.627-8.686-4.343-12.232-8.771
			c-9.603-12.061-11.886-32.665-11.437-51.247c11.125,9.707,18.547,20.312,22.164,31.729
			C239.416,449.799,239.917,459.297,238.066,469.09z M334.938,457.965c-3.149,4.74-7.217,7.819-11.472,9.827
			c-2.077-7.388-3.393-17.146-1.143-27.838c2.543-11.974,9.083-23.444,19.566-34.326
			C344.003,424.192,343.519,445.058,334.938,457.965z M408.001,360.316c-1.488-11.939,0.847-24.707,6.938-38.236l0.018,0.033
			c10.174,20.692,14.066,38.964,10.987,51.455c-0.899,3.668-2.665,8.373-7.476,13.115
			C412.688,378.551,409.16,369.693,408.001,360.316z M494.732,414.175c-9.725,9.083-19.291,16.246-28.409,21.265
			c-10.034,5.502-19.291,8.305-27.543,8.305c-6.921,0-13.514-2.059-19.88-6.229c2.146-3.148,4.826-6.592,8.113-9.982
			c13.722-14.171,31.714-21.333,53.479-21.333c6.488,0,13.322,0.622,20.484,1.886C499.005,410.109,496.912,412.15,494.732,414.175z"
			/>
	</g>
</g>
</svg>
