<svg height="511pt" viewBox="-38 1 511 511.999" width="511pt" xmlns="http://www.w3.org/2000/svg"><path d="m307.21875 99.3125-36.207031-38.015625c-.148438-.15625-.304688-.296875-.460938-.4375-4.359375-4.46875-9.503906-8.164063-15.214843-10.859375 4.761718-5.3125 7.664062-12.320312 7.664062-20 0-16.542969-13.457031-30-30-30s-30 13.457031-30 30c0 7.679688 2.902344 14.691406 7.664062 20-5.910156 2.789062-11.210937 6.65625-15.667968 11.335938-.492188.472656-1 1-1.5625 1.59375l-34.648438 36.382812c-5.339844 5.601562-8.285156 12.949219-8.285156 20.6875 0 16.542969 13.460938 30 30 30h105c16.542969 0 30-13.457031 30-30 0-7.738281-2.941406-15.085938-8.28125-20.6875zm-74.21875 35.6875c-20.679688 0-37.5-16.824219-37.5-37.5 0-6.566406 1.703125-12.742188 4.679688-18.117188 9.75 7.070313 21.285156 10.613282 32.820312 10.613282s23.070312-3.539063 32.820312-10.613282c2.976563 5.375 4.679688 11.550782 4.679688 18.117188 0 20.675781-16.824219 37.5-37.5 37.5zm-23.023438-67.070312c6.359376-4.964844 14.347657-7.929688 23.023438-7.929688 8.671875 0 16.660156 2.964844 23.023438 7.929688-13.839844 9.421874-32.207032 9.421874-46.046876 0zm8.023438-37.929688c0-8.273438 6.730469-15 15-15s15 6.726562 15 15c0 8.269531-6.730469 15-15 15s-15-6.730469-15-15zm-37.5 105c-8.269531 0-15-6.730469-15-15 0-3.867188 1.472656-7.539062 4.144531-10.34375 3.09375-3.25 6.902344-7.25 10.875-11.421875.199219 14.386719 6.207031 27.386719 15.789063 36.765625zm105 0h-15.808594c9.578125-9.375 15.589844-22.378906 15.789063-36.761719l10.875 11.417969c2.671875 2.804688 4.144531 6.476562 4.144531 10.34375 0 8.269531-6.730469 15-15 15zm0 0"/><path d="m90.5 117.511719c0 12.410156 10.09375 22.5 22.5 22.5s22.5-10.089844 22.5-22.5v-19.828125c.003906-.109375.003906-.21875 0-.324219v-29.84375c0-3.441406-2.34375-6.441406-5.679688-7.277344l-120-30c-2.242187-.558593-4.613281-.058593-6.4375 1.363281-1.816406 1.421876-2.882812 3.601563-2.882812 5.914063v89.996094c0 2.3125 1.0625 4.492187 2.882812 5.914062 1.824219 1.421875 4.195313 1.925781 6.4375 1.363281l80.679688-20.167968zm30 0c0 4.136719-3.363281 7.5-7.5 7.5s-7.5-3.363281-7.5-7.5v-6.640625l15-3.75zm-105 .394531v-70.785156l105 26.25v18.285156l-24.167969 6.042969c-.105469.023437-.210937.050781-.3125.078125zm0 0"/><path d="m375.5 165c-33.085938 0-60 26.914062-60 60v128.082031c0 4.140625 3.355469 7.5 7.5 7.5h30c4.140625 0 7.5-3.359375 7.5-7.5v-69.984375c4.796875 1.238282 9.820312 1.898438 15 1.898438 33.082031 0 60-26.914063 60-59.996094 0-33.085938-26.917969-60-60-60zm-30 180.582031h-15v-80.960937c4.289062 4.867187 9.351562 9.03125 15 12.304687zm30-75.585937c-24.8125 0-45-20.183594-45-44.996094 0-24.816406 20.1875-45 45-45s45 20.183594 45 45c0 24.8125-20.1875 44.996094-45 44.996094zm0 0"/><path d="m383 202.5c0 4.140625-3.359375 7.5-7.5 7.5-4.144531 0-7.5-3.359375-7.5-7.5 0-4.144531 3.355469-7.5 7.5-7.5 4.140625 0 7.5 3.355469 7.5 7.5zm0 0"/><path d="m360.5 225c0 4.140625-3.359375 7.5-7.5 7.5-4.144531 0-7.5-3.359375-7.5-7.5 0-4.144531 3.355469-7.5 7.5-7.5 4.140625 0 7.5 3.355469 7.5 7.5zm0 0"/><path d="m383 247.496094c0 4.144531-3.359375 7.5-7.5 7.5-4.144531 0-7.5-3.355469-7.5-7.5 0-4.140625 3.355469-7.496094 7.5-7.496094 4.140625 0 7.5 3.355469 7.5 7.496094zm0 0"/><path d="m405.5 225c0 4.140625-3.359375 7.5-7.5 7.5-4.144531 0-7.5-3.359375-7.5-7.5 0-4.144531 3.355469-7.5 7.5-7.5 4.140625 0 7.5 3.355469 7.5 7.5zm0 0"/><path d="m295.371094 497.382812-24.871094-8.292968v-69.859375c17.09375-3.484375 30-18.636719 30-36.746094v-190c0-15.160156-12.335938-27.496094-27.5-27.496094h-80c-12.566406 0-23.183594 8.476563-26.457031 20.011719h-53.542969c-4.136719 0-7.5-3.367188-7.5-7.5 0-4.136719 3.363281-7.5 7.5-7.5h15c4.144531 0 7.5-3.359375 7.5-7.5 0-4.144531-3.355469-7.5-7.5-7.5h-15c-12.40625 0-22.5 10.089844-22.5 22.5 0 12.40625 10.09375 22.5 22.5 22.5h52.5v182.484375c0 18.109375 12.902344 33.261719 30 36.746094v69.859375l-24.871094 8.292968c-3.929687 1.308594-6.054687 5.554688-4.742187 9.484376 1.046875 3.144531 3.972656 5.132812 7.113281 5.132812.785156 0 1.585938-.125 2.371094-.386719l30-10c3.0625-1.023437 5.128906-3.886719 5.128906-7.117187v-74.511719h45v74.511719c0 3.230468 2.066406 6.09375 5.128906 7.117187l30 10c.785156.261719 1.585938.386719 2.371094.386719 3.140625 0 6.066406-1.988281 7.113281-5.132812 1.3125-3.929688-.8125-8.175782-4.742187-9.484376zm-84.871094-287.398437c6.496094 0 12.613281 3.1875 16.363281 8.523437 1.402344 1.996094 3.691407 3.1875 6.132813 3.1875 2.445312 0 4.734375-1.1875 6.136718-3.183593 3.75-5.332031 9.871094-8.515625 16.367188-8.515625v45h-45zm45-14.984375c-8.308594 0-16.257812 2.964844-22.496094 8.199219-6.238281-5.242188-14.191406-8.214844-22.503906-8.214844v-15h45zm-45 74.996094h45v75h-45zm75-77.507813v190c0 9.773438-6.273438 18.113281-15 21.207031v-223.707031h2.5c6.890625 0 12.5 5.605469 12.5 12.5zm-105 189.996094v-190c0-6.890625 5.605469-12.5 12.5-12.5h2.5v223.710937c-8.730469-3.097656-15-11.433593-15-21.210937zm30 22.5v-44.988281h45v44.988281zm0 0"/></svg>