<?xml version="1.0" encoding="utf-8"?>
<!-- Generator: Adobe Illustrator 16.0.0, SVG Export Plug-In . SVG Version: 6.00 Build 0)  -->
<!DOCTYPE svg PUBLIC "-//W3C//DTD SVG 1.1//EN" "http://www.w3.org/Graphics/SVG/1.1/DTD/svg11.dtd">
<svg version="1.1" id="Layer_1" xmlns="http://www.w3.org/2000/svg" xmlns:xlink="http://www.w3.org/1999/xlink" x="0px" y="0px"
	 width="566.93px" height="566.93px" viewBox="0 0 566.93 566.93" enable-background="new 0 0 566.93 566.93" xml:space="preserve">
<g>
	<g>
		<path fill="#F0A85E" d="M469.934,284.76h-5.005V9.752c0-2.852-1.249-5.562-3.418-7.414c-2.168-1.853-5.04-2.663-7.857-2.217
			c-112.927,17.886-227.444,17.886-340.372,0c-2.821-0.447-5.689,0.363-7.857,2.217c-2.17,1.853-3.419,4.562-3.419,7.414v275.006H97
			c-5.385,0-9.751,4.367-9.751,9.752v18.262c0,17.496,14.236,31.732,31.732,31.732h16.887L241.227,449.86L140.801,550.285
			c-2.788,2.788-3.623,6.982-2.114,10.626s5.064,6.019,9.008,6.019h56.905c2.585,0,5.067-1.027,6.894-2.856l71.97-71.973
			l71.972,71.973c1.828,1.829,4.308,2.855,6.894,2.855h56.905c3.944,0,7.499-2.375,9.008-6.02c1.51-3.644,0.675-7.837-2.113-10.625
			L325.705,449.86l105.356-105.356h16.887c17.498,0,31.733-14.236,31.733-31.732V294.51
			C479.685,289.125,475.318,284.76,469.934,284.76z M121.506,21.109c107.539,15.905,216.382,15.905,323.922,0v142.603
			c-107.514,16.189-216.408,16.189-323.922,0V21.109z M445.428,183.429v101.332H429.38v-0.001v-99.088
			C434.732,184.959,440.081,184.219,445.428,183.429z M409.877,188.092v96.667H157.055v-96.667
			c42.032,4.837,84.221,7.266,126.41,7.266C325.655,195.358,367.845,192.929,409.877,188.092z M121.506,183.427
			c5.346,0.791,10.695,1.532,16.048,2.243v99.088h-16.048V183.427z M163.446,344.504h29.329l76.903,76.902l-14.664,14.664
			L163.446,344.504z M220.353,344.504H346.58l-63.113,63.113L220.353,344.504z M395.699,547.43H366.37l-69.115-69.115l14.664-14.664
			L395.699,547.43z M200.562,547.43h-29.329l202.925-202.926h29.329L200.562,547.43z M460.183,312.772
			c0,6.745-5.487,12.231-12.23,12.231H118.981c-6.745,0-12.231-5.488-12.231-12.231v-8.512h353.435v8.512H460.183z"/>
	</g>
</g>
</svg>
