<?xml version="1.0" encoding="utf-8"?>
<!-- Generator: Adobe Illustrator 16.0.0, SVG Export Plug-In . SVG Version: 6.00 Build 0)  -->
<!DOCTYPE svg PUBLIC "-//W3C//DTD SVG 1.1//EN" "http://www.w3.org/Graphics/SVG/1.1/DTD/svg11.dtd">
<svg version="1.1" id="Capa_1" xmlns="http://www.w3.org/2000/svg" xmlns:xlink="http://www.w3.org/1999/xlink" x="0px" y="0px"
	 width="566.93px" height="566.93px" viewBox="0 0 566.93 566.93" enable-background="new 0 0 566.93 566.93" xml:space="preserve">
<path fill="#F0A85E" d="M349.901,223.174c-6.112,0-11.073,4.961-11.073,11.073s4.961,11.073,11.073,11.073
	c6.111,0,11.072-4.961,11.072-11.073S356.013,223.174,349.901,223.174z"/>
<path fill="#F0A85E" d="M349.901,289.611c-6.112,0-11.073,4.961-11.073,11.072s4.961,11.072,11.073,11.072
	c6.111,0,11.072-4.961,11.072-11.072S356.013,289.611,349.901,289.611z"/>
<path fill="#F0A85E" d="M84.153,333.902c-6.111,0-11.073,4.961-11.073,11.072s4.961,11.073,11.073,11.073
	c6.112,0,11.073-4.962,11.073-11.073S90.265,333.902,84.153,333.902z"/>
<path fill="#F0A85E" d="M560.977,135.846c-3.659-1.908-8.07-1.622-11.457,0.739l-92.372,64.443h-29.736v-11.073
	c0-18.317-14.9-33.218-33.219-33.218h-41.155c18.426-16.246,30.083-39.996,30.083-66.437c0-48.846-39.737-88.583-88.583-88.583
	c-33.318,0-62.389,18.5-77.51,45.757c-15.121-27.258-44.192-45.757-77.51-45.757c-48.846,0-88.583,39.737-88.583,88.583
	c0,26.441,11.657,50.191,30.083,66.437H33.218C14.901,156.737,0,171.638,0,189.955v199.311c0,18.318,14.901,33.219,33.218,33.219
	h62.008v33.219c0,6.116,4.957,11.072,11.073,11.072h33.218v55.364c0,6.116,4.957,11.073,11.073,11.073h132.874
	c6.116,0,11.073-4.957,11.073-11.073v-55.364h33.219c6.115,0,11.072-4.956,11.072-11.072v-33.219h55.364
	c18.318,0,33.219-14.9,33.219-33.219v-33.218h29.736l92.372,64.447c3.348,2.331,7.76,2.664,11.457,0.735
	c3.659-1.912,5.952-5.692,5.952-9.818V145.664C566.929,141.538,564.636,137.757,560.977,135.846z M294.537,23.863
	c36.636,0,66.437,29.806,66.437,66.437c0,36.636-29.801,66.437-66.437,66.437c-36.635,0-66.437-29.801-66.437-66.437
	C228.1,53.669,257.902,23.863,294.537,23.863z M236.037,156.737h-38.024c7.608-6.704,14.062-14.685,19.014-23.612
	C221.98,142.052,228.433,150.033,236.037,156.737z M73.081,90.3c0-36.631,29.802-66.437,66.437-66.437s66.437,29.806,66.437,66.437
	c0,36.636-29.802,66.437-66.437,66.437S73.081,126.936,73.081,90.3z M272.392,511.067H161.663v-44.292h110.729V511.067z
	 M316.683,444.63H117.372v-22.146h199.311V444.63z M405.266,389.266c0,6.107-4.966,11.073-11.073,11.073H33.218
	c-6.107,0-11.073-4.966-11.073-11.073V189.955c0-6.103,4.966-11.073,11.073-11.073h360.974c6.107,0,11.073,4.97,11.073,11.073
	V389.266z M427.411,223.174h22.146v110.729h-22.146V223.174z M544.783,390.188l-73.081-50.986V217.879l73.081-50.987V390.188z"/>
<path fill="#F0A85E" d="M139.518,57.082c-18.318,0-33.218,14.9-33.218,33.218s14.9,33.219,33.218,33.219
	s33.218-14.901,33.218-33.219S157.835,57.082,139.518,57.082z M139.518,101.373c-6.107,0-11.073-4.965-11.073-11.073
	c0-6.103,4.965-11.073,11.073-11.073s11.073,4.97,11.073,11.073C150.59,96.407,145.625,101.373,139.518,101.373z"/>
<path fill="#F0A85E" d="M294.537,123.519c18.317,0,33.219-14.901,33.219-33.219s-14.901-33.218-33.219-33.218
	c-18.318,0-33.218,14.9-33.218,33.218S276.219,123.519,294.537,123.519z M294.537,79.227c6.107,0,11.072,4.97,11.072,11.073
	c0,6.107-4.965,11.073-11.072,11.073s-11.073-4.965-11.073-11.073C283.464,84.197,288.43,79.227,294.537,79.227z"/>
<path fill="#F0A85E" d="M250.246,300.684v-66.437c0-6.116-4.957-11.073-11.073-11.073H84.153c-6.116,0-11.073,4.957-11.073,11.073
	v66.437c0,6.115,4.957,11.072,11.073,11.072h155.02C245.289,311.756,250.246,306.799,250.246,300.684z M228.1,289.611H95.226
	v-44.292H228.1V289.611z"/>
<path fill="#F0A85E" d="M349.901,333.902H128.445c-6.116,0-11.073,4.957-11.073,11.072c0,6.116,4.957,11.073,11.073,11.073h221.457
	c6.116,0,11.072-4.957,11.072-11.073C360.974,338.859,356.018,333.902,349.901,333.902z"/>
</svg>
