<?xml version="1.0" encoding="utf-8"?>
<!-- Generator: Adobe Illustrator 16.0.0, SVG Export Plug-In . SVG Version: 6.00 Build 0)  -->
<!DOCTYPE svg PUBLIC "-//W3C//DTD SVG 1.1//EN" "http://www.w3.org/Graphics/SVG/1.1/DTD/svg11.dtd">
<svg version="1.1" id="Capa_1" xmlns="http://www.w3.org/2000/svg" xmlns:xlink="http://www.w3.org/1999/xlink" x="0px" y="0px"
	 width="512px" height="512px" viewBox="0 0 512 512" enable-background="new 0 0 512 512" xml:space="preserve">
<g>
	<path fill="#F0A85E" d="M213.799,173.166c0-13.27-10.795-24.066-24.065-24.066c-13.271,0-24.067,10.796-24.067,24.066
		c0,13.271,10.797,24.067,24.067,24.067S213.8,186.437,213.799,173.166z M198.799,173.166c0,5-4.066,9.067-9.065,9.067
		c-5,0-9.067-4.068-9.067-9.067s4.068-9.066,9.067-9.066S198.8,168.167,198.799,173.166z"/>
	<path fill="#F0A85E" d="M414.167,246.15v35.483H263.5v-84.4h150.667v18.917c0,4.142,3.358,7.5,7.5,7.5s7.5-3.358,7.5-7.5v-26.417
		c0-4.142-3.358-7.5-7.5-7.5H256c-4.143,0-7.5,3.358-7.5,7.5v99.4c0,4.143,3.357,7.5,7.5,7.5h165.667c4.142,0,7.5-3.357,7.5-7.5
		V246.15c0-4.142-3.358-7.5-7.5-7.5C417.523,238.65,414.167,242.008,414.167,246.15z"/>
	<path fill="#F0A85E" d="M213.8,289.133c0-4.142-3.358-7.5-7.5-7.5h-33.133c-4.142,0-7.5,3.358-7.5,7.5c0,4.143,3.358,7.5,7.5,7.5
		H206.3C210.441,296.633,213.8,293.275,213.8,289.133z"/>
	<path fill="#F0A85E" d="M15.783,149.1C7.08,149.1,0,156.18,0,164.882v149.101c0,8.703,7.08,15.783,15.783,15.783h24.85
		c0.252,0,0.501-0.014,0.749-0.039c0.182-0.018,0.359-0.049,0.537-0.08c0.063-0.011,0.128-0.016,0.191-0.028
		c0.21-0.042,0.416-0.097,0.618-0.155c0.03-0.008,0.062-0.014,0.092-0.023c0.207-0.062,0.408-0.138,0.607-0.217
		c0.026-0.012,0.055-0.02,0.081-0.031c0.188-0.078,0.371-0.168,0.552-0.26c0.037-0.02,0.076-0.035,0.112-0.055
		c0.167-0.089,0.327-0.189,0.486-0.29c0.048-0.03,0.098-0.056,0.145-0.088c0.151-0.101,0.295-0.212,0.438-0.324
		c0.049-0.039,0.102-0.073,0.15-0.112c0.19-0.155,0.372-0.32,0.545-0.494l47.502-47.502h22.527v42.201
		c0,22.404,18.229,40.633,40.633,40.633h75.334v17.634c0,7.664,5.596,14.028,12.914,15.266l-37.187,89.249
		c-0.966,2.315-0.708,4.959,0.683,7.045c1.391,2.087,3.732,3.34,6.24,3.34H256c3.027,0,5.759-1.819,6.923-4.614l26.994-64.785
		v61.899c0,4.143,3.358,7.5,7.5,7.5h33.133c4.142,0,7.5-3.357,7.5-7.5v-61.9l26.994,64.785c1.165,2.795,3.896,4.614,6.923,4.614
		h41.416c2.508,0,4.85-1.254,6.24-3.34s1.648-4.729,0.684-7.045l-37.188-89.249c7.316-1.236,12.914-7.602,12.914-15.266V362.9
		h30.507c4.142,0,7.5-3.358,7.5-7.5c0-4.143-3.358-7.5-7.5-7.5h-38.007h-149.1H156.6c-14.134,0-25.633-11.5-25.633-25.633v-49.701
		V206.3v-49.7c0-14.134,11.499-25.633,25.633-25.633H355.4H497v191.301c0,14.133-11.499,25.633-25.633,25.633H456.54
		c-4.142,0-7.5,3.357-7.5,7.5c0,4.142,3.358,7.5,7.5,7.5h14.827c22.404,0,40.633-18.229,40.633-40.633V90.334
		c0-22.406-18.229-40.634-40.633-40.634H399.07c-5.951,0-11.51,2.161-15.807,5.914l-12.873-25.743
		c-4.103-8.206-12.351-13.304-21.525-13.304H239.434c-10.652,0-19.703,6.958-22.863,16.566h-19.337V32.35
		c0-8.703-7.08-15.783-15.783-15.783h-73.86c-22.179,0-40.71,17.719-41.307,39.497c-0.304,11.075,3.777,21.541,11.493,29.47
		c7.717,7.932,18.061,12.3,29.125,12.3h74.55c8.702,0,15.783-7.081,15.783-15.784v-0.783h18.133v34.7H156.6
		c-22.404,0-40.633,18.228-40.633,40.633v42.2H93.439l-47.502-47.504c-0.174-0.173-0.355-0.337-0.545-0.493
		c-0.048-0.04-0.101-0.074-0.15-0.113c-0.144-0.111-0.287-0.223-0.438-0.324c-0.047-0.031-0.097-0.058-0.145-0.088
		c-0.159-0.101-0.319-0.201-0.486-0.29c-0.037-0.021-0.075-0.035-0.112-0.054c-0.18-0.093-0.362-0.182-0.552-0.261
		c-0.025-0.011-0.054-0.019-0.081-0.03c-0.199-0.08-0.4-0.155-0.607-0.218c-0.03-0.009-0.062-0.014-0.092-0.023
		c-0.203-0.059-0.408-0.113-0.618-0.155c-0.063-0.012-0.127-0.018-0.191-0.029c-0.178-0.031-0.354-0.062-0.537-0.08
		c-0.248-0.025-0.498-0.038-0.749-0.038H15.783L15.783,149.1z M149.099,31.567v51.267h-42.199c-6.98,0-13.506-2.756-18.374-7.76
		c-4.866-5.002-7.44-11.607-7.249-18.599c0.377-13.734,12.181-24.908,26.312-24.908H149.099L149.099,31.567z M182.233,82.05
		c0,0.432-0.352,0.784-0.783,0.784H164.1V31.567h17.351c0.431,0,0.783,0.351,0.783,0.783v8.283v33.134V82.05z M215.367,66.266
		h-18.133V48.133h18.133V66.266z M367.592,115.967l23.385-46.289c1.551-3.07,4.653-4.978,8.094-4.978h72.297
		C485.501,64.7,497,76.199,497,90.334v25.633H367.592z M263.5,64.7h70.491l21.237,42.474l-4.442,8.793H263.5V64.7z M230.368,73.767
		V40.633c0-4.999,4.067-9.066,9.065-9.066h109.433c3.456,0,6.563,1.921,8.108,5.012l16.873,33.743l-10.191,20.169l-18.321-36.645
		c-1.271-2.541-3.867-4.146-6.708-4.146H256c-4.143,0-7.5,3.358-7.5,7.5v58.767h-18.133L230.368,73.767L230.368,73.767z
		 M341.8,396.033h25.167l35.166,84.399h-25.166L341.8,396.033z M304.917,396.033h18.133v84.399h-18.133V396.033z M256,381.033
		h-8.566c-0.276,0-0.5-0.225-0.5-0.5V362.9h134.1v17.633c0,0.275-0.225,0.5-0.5,0.5h-8.566H330.55h-33.133H256z M261,396.033h25.167
		L251,480.433h-25.166L261,396.033z M97.834,213.8h18.133v51.267H97.834V213.8z M48.133,174.706l34.7,34.7v60.054l-34.7,34.7
		V174.706z M15,164.883c0-0.431,0.351-0.783,0.783-0.783h17.35v150.666h-17.35c-0.432,0-0.783-0.351-0.783-0.783V164.883z"/>
	<path fill="#F0A85E" d="M380.25,251.075c4.143,0,7.5-3.358,7.5-7.5v-8.284c0-4.142-3.357-7.5-7.5-7.5s-7.5,3.358-7.5,7.5v8.284
		C372.75,247.717,376.107,251.075,380.25,251.075z"/>
	<path fill="#F0A85E" d="M338.834,251.075c4.143,0,7.5-3.358,7.5-7.5v-8.284c0-4.142-3.357-7.5-7.5-7.5s-7.5,3.358-7.5,7.5v8.284
		C331.334,247.717,334.691,251.075,338.834,251.075z"/>
	<path fill="#F0A85E" d="M297.417,251.075c4.142,0,7.5-3.358,7.5-7.5v-8.284c0-4.142-3.358-7.5-7.5-7.5s-7.5,3.358-7.5,7.5v8.284
		C289.917,247.717,293.273,251.075,297.417,251.075z"/>
</g>
</svg>
