<?xml version="1.0" encoding="utf-8"?>
<!-- Generator: Adobe Illustrator 16.0.0, SVG Export Plug-In . SVG Version: 6.00 Build 0)  -->
<!DOCTYPE svg PUBLIC "-//W3C//DTD SVG 1.1//EN" "http://www.w3.org/Graphics/SVG/1.1/DTD/svg11.dtd">
<svg version="1.1" id="Capa_1" xmlns="http://www.w3.org/2000/svg" xmlns:xlink="http://www.w3.org/1999/xlink" x="0px" y="0px"
	 width="566.93px" height="566.93px" viewBox="0 0 566.93 566.93" enable-background="new 0 0 566.93 566.93" xml:space="preserve">
<g>
	<g>
		<g>
			<rect x="407.161" y="378.154" fill="#F0A85E" width="56.813" height="18.938"/>
			<rect x="331.41" y="378.154" fill="#F0A85E" width="56.813" height="18.938"/>
			<rect x="255.66" y="378.154" fill="#F0A85E" width="56.813" height="18.938"/>
			<path fill="#F0A85E" d="M558.54,196.38L371.18,8.991c-5.32-5.372-12.57-8.39-20.131-8.38h-0.085
				c-7.512,0.004-14.705,3.023-19.97,8.38L132.242,207.714H28.407C12.718,207.714,0,220.432,0,236.121v265.128
				c0,15.688,12.718,28.406,28.407,28.406h140.291l28.255,28.284c5.32,5.371,12.57,8.39,20.131,8.38h0.076
				c7.514-0.003,14.712-3.022,19.979-8.38l28.312-28.284h217.462c15.689,0,28.407-12.718,28.407-28.406V283.787l47.174-47.174
				c5.384-5.271,8.424-12.484,8.437-20.018C566.958,209.004,563.936,201.72,558.54,196.38z M438.087,102.704l-105.01,105.01h-80.41
				L397.882,62.5L438.087,102.704z M344.401,22.342c3.603-3.689,9.513-3.76,13.203-0.157c0.054,0.052,0.106,0.104,0.158,0.157
				l26.73,26.769L225.88,207.714h-66.86L344.401,22.342z M223.73,544.588c-1.731,1.809-4.125,2.834-6.628,2.841
				c-2.538-0.006-4.966-1.028-6.742-2.841l-14.875-14.933h43.188L223.73,544.588z M492.381,501.249c0,5.229-4.239,9.469-9.469,9.469
				H28.407c-5.229,0-9.469-4.239-9.469-9.469V368.686h473.443V501.249z M492.381,349.747H18.938v-56.813h473.443V349.747z
				 M492.381,273.996H18.938v-37.875c0-5.229,4.24-9.469,9.469-9.469h454.505c5.229,0,9.469,4.24,9.469,9.469V273.996z
				 M545.151,223.177L545.151,223.177l-33.832,33.833v-20.889c0-15.688-12.718-28.407-28.407-28.407H359.817l91.62-91.621
				l93.676,93.676c1.819,1.782,2.843,4.223,2.841,6.77C547.952,219.039,546.941,221.432,545.151,223.177z"/>
			<path fill="#F0A85E" d="M90.816,492.036c1.382-1.195,2.677-2.49,3.873-3.873c12.521,14.584,34.036,17.355,49.844,6.42
				c10.203-7.134,16.327-18.76,16.438-31.209c0-20.918-16.958-37.876-37.875-37.876c-1.879-0.026-3.757,0.133-5.605,0.474
				l-0.246,0.066c-0.095,0-0.189,0-0.275,0c-8.674,1.441-16.563,5.893-22.28,12.574c-13.682-15.822-37.602-17.557-53.423-3.872
				c-15.822,13.682-17.556,37.602-3.873,53.423C51.075,503.985,74.994,505.72,90.816,492.036z M120.7,444.635
				c0.79-0.15,1.592-0.217,2.396-0.199c10.459,0,18.938,8.479,18.938,18.938c-0.01,4.006-1.315,7.902-3.721,11.106
				c-0.341,0.464-0.606,0.947-0.995,1.43c-0.066,0.076-0.161,0.123-0.236,0.199c-3.577,3.949-8.657,6.203-13.986,6.202
				c-10.457-0.179-18.791-8.8-18.612-19.258C104.642,453.769,111.509,445.968,120.7,444.635z M66.282,444.436
				c10.459,0,18.938,8.479,18.938,18.938c0,10.459-8.478,18.938-18.938,18.938s-18.938-8.479-18.938-18.938
				C47.344,452.914,55.823,444.436,66.282,444.436z"/>
		</g>
	</g>
</g>
</svg>
