<?xml version="1.0"?>
<svg xmlns="http://www.w3.org/2000/svg" id="Outline" viewBox="0 0 512 512" width="512" height="512"><rect x="16" y="480" width="16" height="16"/><path d="M394.625,480l-43.52-32H376V432H329.345l-59.84-44,125.361-92.177A24,24,0,0,0,392,248h-8V216h8a24,24,0,0,0,0-48h-8V24H368V40H144V24H128V168h-8a24,24,0,0,0,0,48h8v32h-8a24,24,0,0,0-2.866,47.823L242.5,388l-59.84,44H136v16h24.9l-43.52,32H48v16H496V480ZM400,192a8.009,8.009,0,0,1-8,8H360a8,8,0,0,1,0-16h32A8.009,8.009,0,0,1,400,192Zm-32-64H338.474L358.11,56H368Zm-197.526,0L190.11,56h39.416L209.89,128ZM246.11,56h39.416L265.89,128H226.474Zm56,0h39.416L321.89,128H282.474ZM173.526,56,153.89,128H144V56ZM112,192a8.009,8.009,0,0,1,8-8h32a8,8,0,0,1,0,16H120A8.009,8.009,0,0,1,112,192Zm32,24h8a24,24,0,0,0,0-48h-8V144H368v24h-8a24,24,0,0,0,0,48h8v32H144Zm-32,56a8.009,8.009,0,0,1,8-8H392a8,8,0,0,1,0,16H120A8.009,8.009,0,0,1,112,272Zm32.385,24h223.23L256,378.07ZM256,397.93,302.335,432h-92.67ZM187.905,448H324.1l43.52,32H144.385Z"/></svg>
