<?xml version="1.0" encoding="utf-8"?>
<!-- Generator: Adobe Illustrator 16.0.0, SVG Export Plug-In . SVG Version: 6.00 Build 0)  -->
<!DOCTYPE svg PUBLIC "-//W3C//DTD SVG 1.1//EN" "http://www.w3.org/Graphics/SVG/1.1/DTD/svg11.dtd">
<svg version="1.1" id="Capa_1" xmlns="http://www.w3.org/2000/svg" xmlns:xlink="http://www.w3.org/1999/xlink" x="0px" y="0px"
	 width="566.93px" height="566.93px" viewBox="0 0 566.93 566.93" enable-background="new 0 0 566.93 566.93" xml:space="preserve">
<g>
	<g>
		<path fill="#F0A85E" d="M400.837,167.2c0,27.01,22.817,49.828,49.828,49.828c27.01,0,49.827-22.818,49.827-49.828
			s-22.817-49.828-49.827-49.828C423.654,117.373,400.837,140.19,400.837,167.2z M434.056,167.2c0-8.848,7.761-16.609,16.609-16.609
			s16.608,7.761,16.608,16.609s-7.76,16.609-16.608,16.609S434.056,176.048,434.056,167.2z"/>
	</g>
</g>
<g>
	<g>
		<path fill="#F0A85E" d="M0,283.465v232.53c0,5.968,3.201,11.477,8.387,14.43c5.188,2.958,11.56,2.899,16.689-0.142l74.579-44.195
			v13.298c0,27.475,22.354,49.827,49.828,49.827h367.618c27.476,0,49.828-22.353,49.828-49.827V300.074
			c0-22.967-15.625-42.346-36.801-48.088c22.635-21.227,36.801-51.381,36.801-84.786c0-64.108-52.156-116.265-116.265-116.265
			c-38.512,0-72.704,18.826-93.874,47.754c-6.795-15.544-16.676-29.856-29.352-42.207c-25.656-24.998-59.362-38.766-94.91-38.766
			c-73.267,0-132.874,59.607-132.874,132.874c0,39.763,17.562,75.497,45.329,99.868c-25.373,2.283-45.329,23.657-45.329,49.615
			v13.297l-74.579-44.195c-5.133-3.042-11.504-3.096-16.689-0.142C3.201,271.988,0,277.497,0,283.465z M334.4,150.591
			c0,54.019-46.651,99.656-101.871,99.656c-54.949,0-99.655-44.706-99.655-99.656s44.706-99.655,99.655-99.655
			C287.749,50.936,334.4,96.572,334.4,150.591z M369.387,250.247h-47.998c2.061-1.785,4.082-3.63,6.052-5.547
			c7.653-7.457,14.28-15.632,19.835-24.356C353.021,231.475,360.516,241.561,369.387,250.247z M450.665,250.247
			c-45.792,0-83.046-37.254-83.046-83.046s37.254-83.046,83.046-83.046s83.046,37.254,83.046,83.046
			S496.457,250.247,450.665,250.247z M132.874,300.074c0-9.158,7.451-16.609,16.609-16.609h367.618
			c9.158,0,16.609,7.451,16.609,16.609v199.312c0,9.158-7.451,16.609-16.609,16.609H149.483c-9.158,0-16.609-7.451-16.609-16.609
			V300.074z M33.219,312.613l66.437,39.371v95.49l-66.437,39.371V312.613z"/>
	</g>
</g>
<g>
	<g>
		<path fill="#F0A85E" d="M166.093,150.591c0,36.634,29.804,66.437,66.437,66.437c36.634,0,66.438-29.803,66.438-66.437
			c0-36.633-29.804-66.437-66.438-66.437C195.896,84.154,166.093,113.958,166.093,150.591z M199.312,150.591
			c0-18.316,14.901-33.218,33.218-33.218c18.317,0,33.219,14.902,33.219,33.218c0,18.317-14.901,33.219-33.219,33.219
			C214.213,183.81,199.312,168.908,199.312,150.591z"/>
	</g>
</g>
</svg>
