<?xml version="1.0" encoding="utf-8"?>
<!-- Generator: Adobe Illustrator 16.0.0, SVG Export Plug-In . SVG Version: 6.00 Build 0)  -->
<!DOCTYPE svg PUBLIC "-//W3C//DTD SVG 1.1//EN" "http://www.w3.org/Graphics/SVG/1.1/DTD/svg11.dtd">
<svg version="1.1" id="Capa_1" xmlns="http://www.w3.org/2000/svg" xmlns:xlink="http://www.w3.org/1999/xlink" x="0px" y="0px"
	 width="566.93px" height="566.93px" viewBox="0 0 566.93 566.93" enable-background="new 0 0 566.93 566.93" xml:space="preserve">
<g>
	<path fill="#F0A85E" d="M557.32,547.712c-42.385,0-76.871-34.486-76.871-76.872c0-0.086-0.049-0.163-0.049-0.25
		c47.604-50.015,76.92-117.594,76.92-191.929C557.32,125.013,432.308,0,278.66,0S0,125.013,0,278.661
		c0,153.648,125.013,278.661,278.66,278.661c70.53,0,134.987-26.396,184.127-69.762c7.947,45.028,47.267,79.37,94.533,79.37
		c5.314,0,9.609-4.295,9.609-9.608C566.93,552.007,562.635,547.712,557.32,547.712z M19.218,278.661
		c0-143.059,116.384-259.442,259.442-259.442c143.059,0,259.442,116.384,259.442,259.442c0,143.058-116.384,259.442-259.442,259.442
		C135.602,538.103,19.218,421.719,19.218,278.661z"/>
	<path fill="#F0A85E" d="M278.66,38.436c-132.459,0-240.224,107.765-240.224,240.225c0,132.459,107.765,240.224,240.224,240.224
		c132.46,0,240.225-107.765,240.225-240.224C518.885,146.201,411.12,38.436,278.66,38.436z M278.66,499.667
		c-121.871,0-221.006-99.136-221.006-221.006S156.79,57.654,278.66,57.654c121.871,0,221.007,99.136,221.007,221.006
		S400.531,499.667,278.66,499.667z"/>
	<path fill="#F0A85E" d="M393.968,211.398c-3.189,0-6.303,0.298-9.378,0.73l-0.221-0.394l-7.207,1.845
		c-0.097,0.029-0.183,0.067-0.279,0.096c-3.545,0.932-6.985,2.114-10.281,3.594c-0.144,0.067-0.278,0.144-0.423,0.202
		c-3.229,1.47-6.332,3.152-9.263,5.103c-0.077,0.048-0.163,0.096-0.23,0.144c-2.71,1.816-5.247,3.863-7.658,6.044
		c-0.49,0.442-0.98,0.875-1.461,1.326c-2.229,2.133-4.324,4.41-6.246,6.832c-0.413,0.519-0.788,1.057-1.191,1.586
		c-1.912,2.556-3.699,5.198-5.236,8.014c-0.029,0.058-0.067,0.115-0.097,0.183c-1.547,2.854-2.825,5.871-3.959,8.956
		c-0.201,0.548-0.413,1.095-0.605,1.653c-1.019,3.027-1.815,6.149-2.402,9.35c-0.105,0.596-0.183,1.201-0.278,1.806
		c-0.5,3.334-0.846,6.717-0.846,10.195s0.346,6.861,0.855,10.205c0.096,0.605,0.163,1.201,0.278,1.807
		c0.577,3.199,1.384,6.322,2.402,9.35c0.183,0.557,0.403,1.096,0.605,1.643c1.124,3.085,2.412,6.102,3.959,8.956
		c0.028,0.058,0.067,0.115,0.096,0.183c1.538,2.815,3.325,5.458,5.228,8.004c0.394,0.529,0.778,1.066,1.191,1.596
		c1.922,2.421,4.007,4.698,6.246,6.832c0.48,0.451,0.971,0.884,1.461,1.326c2.421,2.181,4.948,4.228,7.668,6.043
		c0.076,0.049,0.153,0.097,0.23,0.145c2.931,1.941,6.034,3.623,9.263,5.103c0.145,0.067,0.278,0.144,0.423,0.202
		c3.296,1.479,6.727,2.661,10.271,3.594c0.097,0.028,0.183,0.066,0.279,0.096l7.207,1.845l0.221-0.394
		c3.075,0.432,6.188,0.73,9.378,0.73c37.081,0,67.263-30.182,67.263-67.263C461.23,241.58,431.049,211.398,393.968,211.398z
		 M384.359,278.661c0,15.172-3.306,30.23-9.6,43.98c-2.402-1.057-4.689-2.315-6.861-3.729c-0.778-0.499-1.479-1.076-2.229-1.623
		c-1.566-1.153-3.075-2.383-4.497-3.709c-0.653-0.605-1.298-1.221-1.902-1.855c-1.614-1.7-3.114-3.507-4.479-5.419
		c-0.24-0.347-0.528-0.644-0.769-0.999c-1.527-2.277-2.815-4.719-3.939-7.246c-0.317-0.721-0.567-1.479-0.855-2.219
		c-0.749-1.951-1.384-3.959-1.874-6.025c-0.201-0.826-0.413-1.652-0.566-2.498c-0.51-2.815-0.865-5.698-0.865-8.658
		s0.355-5.842,0.875-8.658c0.153-0.846,0.365-1.672,0.566-2.499c0.49-2.066,1.124-4.074,1.874-6.025
		c0.288-0.74,0.538-1.499,0.855-2.219c1.124-2.527,2.411-4.968,3.939-7.246c0.23-0.346,0.528-0.653,0.769-0.999
		c1.354-1.922,2.854-3.729,4.478-5.419c0.615-0.644,1.259-1.25,1.903-1.854c1.412-1.336,2.921-2.556,4.497-3.709
		c0.739-0.538,1.45-1.114,2.229-1.624c2.182-1.413,4.459-2.671,6.861-3.729C381.054,248.431,384.359,263.488,384.359,278.661z
		 M393.968,326.705c-0.048,0-0.086-0.01-0.134-0.01c6.332-15.182,9.743-31.526,9.743-48.035s-3.411-32.853-9.743-48.035
		c0.048,0,0.086-0.01,0.134-0.01c26.492,0,48.045,21.553,48.045,48.045C442.013,305.152,420.46,326.705,393.968,326.705z"/>
	<path fill="#F0A85E" d="M216,320.402c0.414-0.52,0.788-1.057,1.192-1.586c1.902-2.547,3.689-5.189,5.227-7.994
		c0.039-0.068,0.077-0.135,0.115-0.212c1.547-2.854,2.825-5.861,3.949-8.946c0.202-0.547,0.414-1.086,0.605-1.643
		c1.019-3.027,1.826-6.15,2.402-9.359c0.105-0.596,0.183-1.201,0.279-1.797c0.5-3.334,0.845-6.726,0.845-10.205
		s-0.346-6.871-0.855-10.205c-0.096-0.605-0.164-1.201-0.279-1.797c-0.576-3.2-1.383-6.323-2.402-9.359
		c-0.182-0.557-0.403-1.095-0.605-1.653c-1.125-3.084-2.402-6.092-3.949-8.936c-0.039-0.067-0.077-0.135-0.116-0.211
		c-1.537-2.806-3.325-5.458-5.227-8.004c-0.394-0.528-0.778-1.066-1.182-1.585c-1.921-2.421-4.007-4.699-6.246-6.832
		c-0.48-0.452-0.971-0.884-1.46-1.326c-2.421-2.181-4.949-4.228-7.668-6.044c-0.077-0.048-0.154-0.086-0.231-0.135
		c-2.931-1.941-6.034-3.623-9.263-5.102c-0.144-0.067-0.289-0.144-0.433-0.211c-3.296-1.47-6.736-2.662-10.282-3.594
		c-0.096-0.029-0.182-0.067-0.269-0.096l-7.207-1.845l-0.221,0.394c-3.065-0.422-6.178-0.72-9.369-0.72
		c-37.081,0-67.263,30.182-67.263,67.263c0,37.082,30.182,67.263,67.263,67.263c3.19,0,6.304-0.299,9.378-0.73l0.221,0.394
		l7.207-1.845c0.096-0.029,0.183-0.067,0.279-0.096c3.545-0.933,6.985-2.114,10.272-3.594c0.144-0.068,0.288-0.145,0.432-0.212
		c3.229-1.47,6.333-3.161,9.263-5.103c0.077-0.048,0.154-0.086,0.221-0.135c2.719-1.815,5.247-3.862,7.668-6.043
		c0.49-0.442,0.98-0.875,1.46-1.326C211.984,325.101,214.079,322.823,216,320.402z M210.523,287.318
		c-0.154,0.846-0.365,1.672-0.567,2.498c-0.49,2.066-1.124,4.074-1.874,6.025c-0.289,0.74-0.538,1.498-0.855,2.219
		c-1.124,2.527-2.412,4.969-3.939,7.246c-0.23,0.346-0.529,0.653-0.769,0.999c-1.355,1.922-2.854,3.728-4.478,5.419
		c-0.615,0.645-1.259,1.25-1.902,1.855c-1.413,1.335-2.921,2.556-4.497,3.709c-0.74,0.537-1.451,1.114-2.229,1.623
		c-2.181,1.413-4.458,2.672-6.861,3.729c-6.284-13.75-9.59-28.808-9.59-43.98c0-15.173,3.306-30.23,9.6-43.98
		c2.402,1.057,4.689,2.316,6.861,3.729c0.778,0.5,1.479,1.076,2.229,1.624c1.566,1.153,3.075,2.383,4.497,3.709
		c0.653,0.605,1.297,1.22,1.903,1.854c1.614,1.701,3.113,3.507,4.478,5.419c0.24,0.346,0.529,0.644,0.769,0.999
		c1.528,2.277,2.815,4.718,3.939,7.246c0.317,0.721,0.567,1.479,0.855,2.22c0.75,1.95,1.384,3.958,1.874,6.024
		c0.202,0.827,0.413,1.653,0.567,2.499c0.509,2.815,0.865,5.698,0.865,8.658S211.042,284.503,210.523,287.318z M115.308,278.661
		c0-26.492,21.553-48.045,48.045-48.045c0.048,0,0.086,0.01,0.135,0.01c-6.333,15.182-9.744,31.527-9.744,48.035
		s3.411,32.853,9.744,48.035c-0.048,0-0.086,0.01-0.135,0.01C136.861,326.705,115.308,305.152,115.308,278.661z"/>
	<path fill="#F0A85E" d="M211.734,172.952l1.845,7.207c0.029,0.096,0.067,0.182,0.096,0.278c0.932,3.546,2.114,6.986,3.594,10.272
		c0.067,0.144,0.144,0.279,0.202,0.423c1.47,3.229,3.162,6.333,5.103,9.263c0.048,0.077,0.096,0.154,0.144,0.23
		c1.816,2.71,3.863,5.247,6.044,7.668c0.442,0.49,0.875,0.98,1.326,1.461c2.133,2.229,4.411,4.324,6.832,6.246
		c0.519,0.413,1.057,0.797,1.585,1.191c2.556,1.912,5.199,3.7,8.014,5.237c0.058,0.039,0.115,0.067,0.182,0.096
		c2.854,1.547,5.871,2.825,8.956,3.959c0.548,0.202,1.086,0.413,1.644,0.605c3.026,1.019,6.149,1.816,9.349,2.402
		c0.596,0.105,1.201,0.182,1.807,0.278c3.344,0.5,6.726,0.846,10.205,0.846s6.861-0.346,10.205-0.855
		c0.605-0.096,1.201-0.164,1.807-0.279c3.199-0.577,6.322-1.384,9.35-2.402c0.557-0.183,1.096-0.404,1.652-0.605
		c3.084-1.124,6.102-2.412,8.955-3.959c0.059-0.029,0.116-0.067,0.183-0.096c2.815-1.538,5.458-3.325,8.015-5.237
		c0.528-0.394,1.066-0.778,1.585-1.191c2.422-1.922,4.699-4.007,6.832-6.246c0.452-0.48,0.884-0.971,1.326-1.461
		c2.182-2.412,4.228-4.948,6.044-7.658c0.048-0.077,0.097-0.154,0.145-0.23c1.94-2.931,3.622-6.035,5.103-9.263
		c0.066-0.144,0.144-0.279,0.201-0.423c1.471-3.296,2.662-6.736,3.594-10.282c0.029-0.096,0.067-0.182,0.097-0.278l1.845-7.207
		l-0.395-0.221c0.423-3.065,0.721-6.179,0.721-9.369c0-37.081-30.182-67.263-67.263-67.263s-67.263,30.182-67.263,67.263
		c0,3.19,0.298,6.303,0.73,9.378L211.734,172.952z M318.912,189.422c-0.499,0.778-1.076,1.48-1.624,2.22
		c-1.152,1.566-2.383,3.075-3.709,4.497c-0.605,0.644-1.22,1.297-1.854,1.902c-1.7,1.615-3.507,3.114-5.42,4.478
		c-0.346,0.24-0.643,0.528-0.998,0.769c-2.277,1.528-4.719,2.815-7.246,3.94c-0.721,0.317-1.479,0.567-2.219,0.855
		c-1.951,0.75-3.959,1.384-6.025,1.874c-0.826,0.202-1.652,0.413-2.498,0.567c-2.816,0.519-5.698,0.875-8.658,0.875
		c-2.959,0-5.842-0.356-8.658-0.875c-0.845-0.154-1.672-0.365-2.498-0.567c-2.066-0.49-4.074-1.125-6.025-1.874
		c-0.74-0.288-1.489-0.538-2.22-0.855c-2.527-1.125-4.968-2.412-7.245-3.94c-0.346-0.23-0.653-0.528-1-0.769
		c-1.922-1.355-3.728-2.863-5.419-4.478c-0.644-0.615-1.249-1.259-1.854-1.902c-1.326-1.413-2.556-2.921-3.709-4.497
		c-0.538-0.74-1.115-1.451-1.624-2.22c-1.413-2.181-2.681-4.458-3.728-6.861c27.491-12.587,60.459-12.587,87.96,0
		C321.584,184.963,320.325,187.25,318.912,189.422z M278.66,115.308c26.492,0,48.045,21.553,48.045,48.045
		c0,0.058-0.02,0.115-0.02,0.173c-30.412-12.511-65.648-12.511-96.051,0c0-0.058-0.02-0.115-0.02-0.173
		C230.615,136.861,252.168,115.308,278.66,115.308z"/>
	<path fill="#F0A85E" d="M345.587,384.369l-1.845-7.207c-0.029-0.096-0.067-0.183-0.097-0.27c-0.932-3.545-2.123-6.985-3.594-10.281
		c-0.067-0.145-0.144-0.288-0.211-0.432c-1.471-3.229-3.161-6.333-5.103-9.264c-0.048-0.076-0.086-0.154-0.135-0.23
		c-1.815-2.719-3.862-5.246-6.044-7.668c-0.441-0.49-0.874-0.98-1.326-1.461c-2.133-2.238-4.41-4.324-6.832-6.246
		c-0.519-0.412-1.057-0.787-1.585-1.182c-2.547-1.902-5.189-3.689-8.005-5.227c-0.066-0.039-0.134-0.077-0.211-0.115
		c-2.854-1.547-5.861-2.826-8.937-3.949c-0.547-0.202-1.096-0.414-1.652-0.605c-3.027-1.02-6.15-1.816-9.359-2.402
		c-0.596-0.105-1.191-0.184-1.797-0.279c-3.324-0.5-6.717-0.846-10.195-0.846s-6.87,0.346-10.205,0.855
		c-0.605,0.096-1.201,0.164-1.797,0.279c-3.2,0.586-6.323,1.383-9.359,2.402c-0.558,0.182-1.096,0.402-1.644,0.605
		c-3.084,1.123-6.092,2.401-8.946,3.949c-0.067,0.037-0.134,0.076-0.211,0.115c-2.806,1.537-5.448,3.314-7.995,5.227
		c-0.528,0.395-1.066,0.778-1.585,1.191c-2.421,1.922-4.699,4.008-6.832,6.246c-0.452,0.48-0.884,0.971-1.326,1.461
		c-2.181,2.412-4.228,4.948-6.044,7.668c-0.048,0.076-0.086,0.153-0.134,0.23c-1.941,2.931-3.632,6.034-5.103,9.263
		c-0.067,0.144-0.144,0.288-0.211,0.433c-1.47,3.296-2.662,6.727-3.594,10.271c-0.029,0.097-0.077,0.184-0.096,0.279l-1.845,7.207
		l0.394,0.221c-0.433,3.056-0.73,6.169-0.73,9.359c0,37.081,30.182,67.263,67.263,67.263s67.263-30.182,67.263-67.263
		c0-3.19-0.298-6.304-0.729-9.379L345.587,384.369z M238.408,367.898c0.5-0.777,1.076-1.479,1.624-2.219
		c1.153-1.566,2.383-3.075,3.709-4.497c0.605-0.644,1.221-1.298,1.854-1.903c1.701-1.613,3.507-3.113,5.419-4.477
		c0.346-0.24,0.644-0.529,1-0.77c2.277-1.527,4.718-2.815,7.245-3.939c0.721-0.317,1.48-0.566,2.22-0.855
		c1.951-0.749,3.959-1.383,6.025-1.873c0.826-0.202,1.653-0.414,2.499-0.567c2.815-0.519,5.698-0.874,8.657-0.874
		c2.96,0,5.842,0.355,8.658,0.874c0.846,0.153,1.672,0.365,2.498,0.567c2.066,0.49,4.074,1.124,6.025,1.873
		c0.739,0.289,1.488,0.538,2.219,0.855c2.527,1.124,4.969,2.412,7.246,3.939c0.346,0.23,0.652,0.529,0.998,0.77
		c1.923,1.354,3.729,2.863,5.42,4.477c0.645,0.615,1.249,1.26,1.854,1.903c1.326,1.413,2.557,2.921,3.709,4.497
		c0.538,0.74,1.115,1.451,1.624,2.219c1.413,2.182,2.682,4.459,3.729,6.861c-27.491,12.588-60.459,12.588-87.96,0
		C235.737,372.357,236.996,370.07,238.408,367.898z M278.66,442.014c-26.492,0-48.045-21.554-48.045-48.045
		c0-0.049,0.01-0.087,0.01-0.135c15.182,6.332,31.527,9.743,48.035,9.743s32.854-3.411,48.035-9.743c0,0.048,0.01,0.086,0.01,0.135
		C326.705,420.46,305.152,442.014,278.66,442.014z"/>
</g>
</svg>
