<?xml version="1.0" encoding="utf-8"?>
<!-- Generator: Adobe Illustrator 16.0.0, SVG Export Plug-In . SVG Version: 6.00 Build 0)  -->
<!DOCTYPE svg PUBLIC "-//W3C//DTD SVG 1.1//EN" "http://www.w3.org/Graphics/SVG/1.1/DTD/svg11.dtd">
<svg version="1.1" id="Capa_1" xmlns="http://www.w3.org/2000/svg" xmlns:xlink="http://www.w3.org/1999/xlink" x="0px" y="0px"
	 width="566.93px" height="566.93px" viewBox="0 0 566.93 566.93" enable-background="new 0 0 566.93 566.93" xml:space="preserve">
<g>
	<g>
		<path fill="#F0A85E" d="M511.565,81.939H55.364C24.836,81.939,0,106.776,0,137.304v292.323c0,30.527,24.836,55.364,55.364,55.364
			h171.629c6.116,0,11.073-4.958,11.073-11.073s-4.958-11.073-11.073-11.073H55.364c-18.317,0-33.219-14.901-33.219-33.218V294.538
			h240.656c1.775,8.986,7.125,16.905,15.058,21.937c2.583,1.637,5.332,2.882,8.164,3.759l-19.495,33.526
			c-2.255,3.878-1.948,8.733,0.778,12.295c2.727,3.562,7.333,5.127,11.665,3.966l26.515-7.116l7.095,26.52
			c1.157,4.328,4.808,7.531,9.249,8.117c0.486,0.064,0.97,0.095,1.451,0.095c3.918,0,7.592-2.081,9.586-5.536l50.483-87.439
			l63.247,112.448c1.978,3.516,5.685,5.646,9.647,5.646c0.461,0,0.924-0.029,1.389-0.088c4.467-0.563,8.147-3.774,9.312-8.124
			l7.096-26.521l26.515,7.116c4.312,1.156,8.897-0.387,11.629-3.92c2.731-3.531,3.075-8.356,0.872-12.24l-32.562-57.38
			c1.028,0.095,2.06,0.153,3.091,0.153c6.293,0,12.555-1.773,18.083-5.277c7.934-5.029,13.284-12.949,15.058-21.936h28.058v135.089
			c0,18.316-14.902,33.218-33.219,33.218H400.837v-59.793c0-6.115-4.957-11.072-11.073-11.072c-6.115,0-11.072,4.957-11.072,11.072
			v59.793h-57.54c-6.115,0-11.073,4.958-11.073,11.073s4.958,11.073,11.073,11.073h190.414c30.528,0,55.364-24.837,55.364-55.364
			V137.304C566.93,106.776,542.094,81.939,511.565,81.939z M289.718,297.77c-3.444-2.184-5.421-5.775-5.421-9.854v-77.58l0,0
			c0-4.079,1.975-7.67,5.42-9.854c3.444-2.185,7.536-2.438,11.225-0.698l54.327,25.633c-1.341,3.637-2.073,7.566-2.073,11.663
			v23.686c0,4.228,0.786,8.272,2.21,12.005l-54.463,25.696C297.254,300.205,293.164,299.953,289.718,297.77z M327.063,357.862
			l-3.047-11.388c-0.76-2.838-2.615-5.26-5.159-6.728c-2.545-1.47-5.569-1.866-8.407-1.104l-11.272,3.025l14.329-24.643
			l51.035-24.078L327.063,357.862z M310.392,179.754c-10.534-4.969-22.694-4.213-32.531,2.022
			c-9.836,6.235-15.709,16.912-15.709,28.558v62.058H22.146V137.304c0-18.317,14.902-33.219,33.219-33.219h323.327v94.858
			c0,1.832,0.451,3.553,1.239,5.075c-3.55,0.759-6.892,2.079-9.936,3.859L310.392,179.754z M392.691,272.432h-5.685
			c-6.434,0-11.667-5.234-11.667-11.667v-23.687c0-6.433,5.233-11.666,11.667-11.666h5.685c6.434,0,11.668,5.233,11.668,11.666
			v23.687C404.359,267.199,399.125,272.432,392.691,272.432z M480.733,366.887l-11.655-3.128c-2.838-0.762-5.862-0.363-8.407,1.104
			c-2.544,1.47-4.401,3.891-5.159,6.729l-2.936,10.971l-50.274-89.385c2.438-0.724,4.762-1.716,6.938-2.943l38.232,18.039
			L480.733,366.887z M489.812,297.77c-3.445,2.186-7.536,2.439-11.225,0.698l-54.318-25.628c1.439-3.753,2.236-7.821,2.236-12.074
			v-23.687c0-4.123-0.744-8.074-2.101-11.73l54.183-25.564c3.689-1.739,7.779-1.486,11.225,0.698s5.42,5.775,5.42,9.854v77.581l0,0
			C495.231,291.994,493.257,295.586,489.812,297.77z M544.785,272.392h-27.407v-62.057c0-11.646-5.873-22.323-15.709-28.558
			c-9.838-6.235-21.999-6.99-32.531-2.021l-59.509,28.076c-3.067-1.783-6.435-3.103-10.012-3.85
			c0.774-1.513,1.221-3.222,1.221-5.039v-94.858h110.729c18.316,0,33.219,14.902,33.219,33.219V272.392z"/>
	</g>
</g>
<g>
	<g>
		<path fill="#F0A85E" d="M281.051,466.09c-2.06-2.06-4.916-3.245-7.828-3.245s-5.769,1.186-7.829,3.245s-3.245,4.916-3.245,7.828
			s1.185,5.769,3.245,7.828s4.917,3.245,7.829,3.245s5.769-1.186,7.828-3.245c2.071-2.059,3.244-4.916,3.244-7.828
			S283.122,468.149,281.051,466.09z"/>
	</g>
</g>
<g>
	<g>
		<path fill="#F0A85E" d="M234.19,141.732H70.866c-6.116,0-11.073,4.958-11.073,11.073c0,6.115,4.957,11.073,11.073,11.073H234.19
			c6.116,0,11.073-4.958,11.073-11.073C245.264,146.69,240.306,141.732,234.19,141.732z"/>
	</g>
</g>
<g>
	<g>
		<path fill="#F0A85E" d="M234.19,391.979H70.866c-6.116,0-11.073,4.958-11.073,11.073s4.957,11.073,11.073,11.073H234.19
			c6.116,0,11.073-4.958,11.073-11.073S240.306,391.979,234.19,391.979z"/>
	</g>
</g>
<g>
	<g>
		<path fill="#F0A85E" d="M139.518,201.526H70.866c-6.116,0-11.073,4.958-11.073,11.073c0,6.116,4.957,11.073,11.073,11.073h68.652
			c6.115,0,11.073-4.958,11.073-11.073C150.591,206.483,145.633,201.526,139.518,201.526z"/>
	</g>
</g>
<g>
	<g>
		<path fill="#F0A85E" d="M190.187,204.771c-2.06-2.06-4.916-3.245-7.828-3.245c-2.923,0-5.769,1.185-7.829,3.245
			s-3.245,4.916-3.245,7.828c0,2.913,1.185,5.769,3.245,7.829s4.905,3.245,7.829,3.245c2.912,0,5.769-1.185,7.828-3.245
			s3.245-4.916,3.245-7.829C193.432,209.687,192.247,206.83,190.187,204.771z"/>
	</g>
</g>
</svg>
