<?xml version="1.0" encoding="utf-8"?>
<!-- Generator: Adobe Illustrator 16.0.0, SVG Export Plug-In . SVG Version: 6.00 Build 0)  -->
<!DOCTYPE svg PUBLIC "-//W3C//DTD SVG 1.1//EN" "http://www.w3.org/Graphics/SVG/1.1/DTD/svg11.dtd">
<svg version="1.1" id="Capa_1" xmlns="http://www.w3.org/2000/svg" xmlns:xlink="http://www.w3.org/1999/xlink" x="0px" y="0px"
	 width="418px" height="418px" viewBox="0 0 418 418" enable-background="new 0 0 418 418" xml:space="preserve">
<path fill="#F0A85E" d="M207.606,399.779c-14.561,0-29.115-2.935-42.592-8.797l-64.446-28.016
	c-23.315-10.141-47.967-16.564-73.27-19.094l-21.164-2.116C2.65,341.41,0,338.479,0,334.979v-66.387
	c0-1.474,0.479-2.907,1.364-4.085c1.582-2.116,39.513-51.67,97.454-38.776c32.587,7.241,58.826,20.794,75.098,30.888
	c11.813,7.328,25.662,11.197,40.047,11.197h64.445c11.108,0,20.871,5.878,26.332,14.694l55.505-63.946
	c10.761-14.371,28.366-23.171,46.798-23.171h4.146c2.304,0,4.447,1.162,5.702,3.087c1.259,1.925,1.458,4.361,0.534,6.466
	l-50.2,114.089c-10.976,24.951-33.324,43.8-59.776,50.414l-8.832,2.205l-51.377,20.553
	C234.596,397.262,221.1,399.779,207.606,399.779z M13.626,328.813l15.029,1.505c26.709,2.67,52.733,9.455,77.35,20.157
	l64.442,28.016c22.66,9.853,48.793,10.239,71.738,1.06l51.798-20.719c0.289-0.113,0.581-0.207,0.881-0.28l9.28-2.323
	c22.399-5.601,41.322-21.557,50.609-42.682l45.788-104.061c-11.724,1.727-22.512,8.045-29.699,17.625l-61.487,70.865
	c0.008,0.265,0.012,0.525,0.012,0.795c0,17.066-13.887,30.954-30.954,30.954h-89.916c-11.688,0-23.241,1.874-34.329,5.569
	l-2.502-6.354l-2.116-6.473l0.347-0.113c12.445-4.147,25.443-6.256,38.601-6.256h89.916c9.553,0,17.332-7.775,17.332-17.332
	s-7.775-17.332-17.332-17.332h-64.445c-16.927,0-33.258-4.58-47.227-13.244c-15.372-9.537-40.152-22.333-70.869-29.166
	c-43.878-9.731-75.453,23.943-82.242,31.977v57.812H13.626z"/>
<path fill="#F0A85E" d="M268.268,193.854c-10.477,0-22.225-3.235-35.156-9.701c-1.566-0.788-2.775-2.152-3.367-3.8
	c-0.526-1.477-12.698-36.489,6.645-62.38c14.059-18.821,40.492-27.298,78.609-25.174c3.477,0.191,6.248,2.978,6.42,6.462
	c0.136,2.705,2.946,66.55-29.609,87.807C284.887,191.593,277.021,193.854,268.268,193.854z M241.799,173.22
	c17.894,8.391,32.197,9.213,42.564,2.443c19.305-12.608,23.479-50.036,23.581-69.516c-29.867-0.729-50.2,6.002-60.642,19.975
	C234.877,142.761,239.706,165.647,241.799,173.22z"/>
<path fill="#F0A85E" d="M164.094,104.604c-12.078,0-26.012-2.588-38.172-11.494C105.296,77.996,95.817,49.22,97.742,7.587
	c0.164-3.48,2.923-6.279,6.404-6.486c2.946-0.167,72.689-3.89,96.156,31.336c10.929,16.396,10.032,37.872-2.654,63.841
	c-0.771,1.579-2.12,2.798-3.769,3.403C192.963,100.021,180.175,104.604,164.094,104.604z M191.528,93.29h0.066H191.528z
	 M111.15,14.505c-0.589,33.347,7.078,56.078,22.82,67.614c18.849,13.809,44.584,7.939,52.675,5.581
	c9.256-20.088,10.04-36.126,2.323-47.709C174.625,18.461,132.563,14.251,111.15,14.505z"/>
<path fill="#F0A85E" d="M217.291,279.042c-0.215,0-0.429-0.012-0.646-0.031c-3.629-0.343-6.346-3.48-6.162-7.124
	c0.401-8.014,1.088-15.614,2.019-22.816c2.833-48.205,1.372-160.462-69.602-191.517c-3.445-1.508-5.02-5.523-3.512-8.972
	c1.504-3.441,5.531-5.012,8.972-3.508c41.825,18.299,68.137,63.857,76.076,131.748c0.713,6.084,1.247,12.083,1.645,17.925
	c18.692-47.234,47.289-63.923,48.992-64.878c3.273-1.851,7.429-0.674,9.275,2.596c1.836,3.274,0.683,7.417-2.58,9.265
	c-0.721,0.421-44.572,26.737-55.578,107.891c-0.838,13.883-2.047,22.734-2.159,23.545
	C223.559,276.562,220.654,279.042,217.291,279.042z"/>
</svg>
