<?xml version="1.0" encoding="utf-8"?>
<!-- Generator: Adobe Illustrator 16.0.0, SVG Export Plug-In . SVG Version: 6.00 Build 0)  -->
<!DOCTYPE svg PUBLIC "-//W3C//DTD SVG 1.1//EN" "http://www.w3.org/Graphics/SVG/1.1/DTD/svg11.dtd">
<svg version="1.1" id="Capa_1" xmlns="http://www.w3.org/2000/svg" xmlns:xlink="http://www.w3.org/1999/xlink" x="0px" y="0px"
	 width="566.93px" height="566.93px" viewBox="0 0 566.93 566.93" enable-background="new 0 0 566.93 566.93" xml:space="preserve">
<g>
	<g>
		<g>
			<path fill="#F0A85E" d="M556.936,280.176c-5.736-3.439-12.033-5.781-18.568-6.942c4.57-2.482,8.809-5.633,12.59-9.412
				c13.733-13.734,19.149-33.934,14.133-52.714c-1.023-3.828-4.012-6.818-7.84-7.841c-4.6-1.228-9.354-1.852-14.126-1.852
				c-1.927,0-3.839,0.106-5.731,0.301c3.742-3.65,7.003-7.84,9.599-12.525c9.416-16.988,9.055-37.896-0.943-54.565
				c-2.038-3.398-5.745-5.435-9.698-5.376c-6.807,0.124-13.42,1.551-19.556,4.051c2.612-4.56,4.604-9.509,5.815-14.753
				c4.369-18.925-1.742-38.923-15.947-52.193c-2.896-2.704-7.016-3.655-10.806-2.496c-8.592,2.634-16.242,7.339-22.437,13.489
				c-1.137-2.75-2.48-5.432-4.083-7.998c-10.039-16.068-27.359-25.66-46.327-25.66c-0.618,0-1.238,0.011-1.857,0.031
				c-3.962,0.135-7.548,2.376-9.405,5.877c-9.109,17.173-8.376,38.073,1.914,54.543c1.601,2.561,3.406,4.938,5.353,7.159
				c-8.266,2.897-15.831,7.754-21.915,14.268c-2.703,2.896-3.655,7.017-2.493,10.806c4.091,13.344,13.147,24.432,24.924,31.258
				c-0.334,1.092-0.52,2.237-0.498,3.412c0.255,13.955,5.902,27.11,15.343,36.92c-0.621,0.958-1.114,2.007-1.416,3.144
				c-3.604,13.488-1.8,27.692,4.574,39.723c-0.865,0.75-1.634,1.619-2.236,2.627c-7.178,11.972-9.36,26.121-6.551,39.437
				c-1.037,0.485-2.011,1.112-2.87,1.914c-10.199,9.527-16.197,22.528-17.169,36.104c-1.129,0.179-2.239,0.515-3.287,1.049
				c-12.432,6.348-21.779,17.189-26.455,29.971c-1.135-0.138-2.294-0.121-3.449,0.104c-19.078,3.726-34.858,17.447-41.186,35.813
				c-4.742,13.775-3.683,28.768,2.52,41.598c-17.034,4.577-34.926,7.033-53.385,7.033c-18.458,0-36.349-2.456-53.383-7.033
				c6.202-12.829,7.261-27.822,2.519-41.601c-6.326-18.364-22.108-32.085-41.186-35.81c-1.154-0.226-2.313-0.241-3.446-0.104
				c-4.677-12.783-14.026-23.624-26.455-29.971c-1.047-0.534-2.159-0.869-3.288-1.05c-0.971-13.577-6.97-26.576-17.172-36.105
				c-0.858-0.803-1.833-1.429-2.868-1.914c2.808-13.32,0.625-27.47-6.554-39.44c-0.604-1.009-1.368-1.881-2.229-2.633
				c6.37-12.027,8.17-26.23,4.568-39.715c-0.302-1.135-0.797-2.185-1.416-3.143c9.439-9.807,15.088-22.964,15.343-36.92
				c0.022-1.177-0.164-2.321-0.496-3.414c11.776-6.824,20.83-17.915,24.922-31.256c1.161-3.789,0.211-7.909-2.494-10.805
				c-6.083-6.513-13.648-11.37-21.916-14.27c1.948-2.22,3.751-4.597,5.352-7.159c10.293-16.473,11.026-37.374,1.914-54.544
				c-1.857-3.5-5.443-5.741-9.403-5.876c-0.619-0.021-1.239-0.031-1.858-0.031c-18.969,0-36.287,9.592-46.326,25.66
				c-1.602,2.564-2.945,5.248-4.083,7.998c-6.194-6.149-13.844-10.854-22.439-13.489c-3.787-1.162-7.907-0.209-10.803,2.496
				c-14.207,13.27-20.317,33.268-15.948,52.194c1.211,5.242,3.206,10.192,5.815,14.752c-6.135-2.5-12.747-3.928-19.553-4.052
				c-3.992-0.069-7.66,1.978-9.698,5.375c-10,16.671-10.363,37.581-0.947,54.566c2.597,4.684,5.857,8.875,9.6,12.525
				c-1.891-0.196-3.803-0.301-5.731-0.301c-4.771,0-9.523,0.624-14.126,1.852c-3.828,1.023-6.817,4.013-7.839,7.842
				c-5.015,18.784,0.4,38.981,14.134,52.714c3.779,3.778,8.019,6.929,12.589,9.411c-6.533,1.163-12.833,3.503-18.569,6.942
				c-3.399,2.039-5.45,5.737-5.376,9.701c0.357,19.438,11.132,37.361,28.118,46.774c4.639,2.571,9.631,4.422,14.779,5.555
				c-5.962,2.906-11.415,6.888-16.019,11.817c-2.704,2.896-3.655,7.015-2.495,10.803c5.698,18.589,20.995,32.848,39.919,37.215
				c4.048,0.936,8.193,1.408,12.316,1.408c1.152,0,2.298-0.05,3.443-0.123c-4.914,4.409-9.077,9.711-12.165,15.756
				c-1.801,3.529-1.581,7.752,0.579,11.072C83.216,445.712,100.313,455,118.829,455c0.962,0,1.938-0.025,2.897-0.076
				c5.374-0.281,10.595-1.385,15.541-3.164c-3.528,5.607-6.081,11.87-7.386,18.553c-0.761,3.89,0.617,7.888,3.61,10.485
				c9.95,8.635,22.668,13.392,35.806,13.392c6.038,0,12.016-1.003,17.771-2.984c15.167-5.223,27.151-16.906,32.966-31.562
				c6.338,1.838,12.791,3.403,19.341,4.692c-4.199,4.05-7.873,8.699-10.86,13.876c-3.057,5.296-1.241,12.067,4.055,15.125
				c5.297,3.056,12.068,1.241,15.126-4.055c7.352-12.739,21.057-20.652,35.768-20.652s28.418,7.914,35.768,20.652
				c2.051,3.553,5.772,5.539,9.601,5.539c1.877,0,3.782-0.478,5.525-1.484c5.296-3.058,7.11-9.828,4.055-15.125
				c-2.986-5.176-6.661-9.825-10.861-13.877c6.551-1.288,13.005-2.854,19.342-4.691c5.815,14.656,17.8,26.339,32.968,31.562
				c5.753,1.98,11.73,2.984,17.772,2.984c0,0,0,0,0.002,0c13.139,0,25.854-4.756,35.802-13.393
				c2.993-2.598,4.368-6.595,3.609-10.484c-1.304-6.682-3.857-12.944-7.386-18.553c4.944,1.779,10.165,2.884,15.538,3.164
				c0.964,0.051,1.933,0.038,2.899,0.076c18.514,0,35.611-9.289,45.734-24.845c2.162-3.321,2.383-7.546,0.579-11.075
				c-3.086-6.044-7.25-11.344-12.163-15.755c1.145,0.073,2.29,0.123,3.443,0.123c0,0,0,0,0.002,0c4.122,0,8.266-0.474,12.312-1.407
				c18.925-4.366,34.221-18.626,39.923-37.213c1.162-3.789,0.212-7.91-2.493-10.806c-4.604-4.929-10.059-8.91-16.021-11.817
				c5.145-1.13,10.137-2.98,14.779-5.553c16.986-9.416,27.761-27.34,28.116-46.777C562.387,285.912,560.336,282.213,556.936,280.176
				z M130.431,316.185c5.166,7.442,7.073,16.844,4.997,25.833c-2.076,8.992-7.911,16.607-15.816,21.03
				c-5.164-7.44-7.071-16.844-4.995-25.834C116.691,328.225,122.527,320.609,130.431,316.185z M94.531,286.93
				c4.473-8.07,12.18-13.782,20.998-15.855c2.915,8.576,2.156,18.139-2.317,26.209c-4.475,8.071-12.181,13.783-21,15.857
				C89.296,304.564,90.055,295.002,94.531,286.93z M81.255,257.658c-0.542,0-1.085-0.014-1.626-0.041
				c-0.438-9.047,2.926-18.033,9.453-24.558c6.125-6.126,14.269-9.5,22.929-9.5c0.541,0,1.084,0.014,1.624,0.04
				c0.438,9.049-2.925,18.035-9.452,24.561C98.057,254.286,89.914,257.658,81.255,257.658z M116.375,81.083
				c4.935-7.896,12.832-13.162,21.797-14.747c2.466,8.72,1.209,18.238-3.685,26.069c-4.933,7.897-12.829,13.164-21.795,14.748
				C110.228,98.43,111.483,88.913,116.375,81.083z M122.62,131.197c2.417-0.558,4.883-0.84,7.333-0.84
				c6.63,0,13.1,2.076,18.502,5.832c-4.425,7.906-12.04,13.742-21.033,15.818c-2.416,0.558-4.881,0.841-7.329,0.841c0,0,0,0-0.001,0
				c-6.629-0.001-13.102-2.077-18.504-5.835C106.014,139.109,113.629,133.273,122.62,131.197z M98.694,179.77
				c4.808-2.664,10.229-4.074,15.683-4.074c3.596,0,7.153,0.596,10.529,1.749c-2.073,8.821-7.784,16.533-15.858,21.007
				c-4.806,2.664-10.227,4.073-15.678,4.073c-3.599,0-7.156-0.596-10.534-1.75C84.907,191.955,90.62,184.245,98.694,179.77z
				 M70.897,87.73c7.904,4.422,13.739,12.037,15.815,21.03c1.481,6.42,0.924,13.045-1.391,19.022
				c-1.273,2.233-2.514,4.482-3.707,6.75c-7.853-4.432-13.647-12.016-15.713-20.968C63.825,104.573,65.731,95.171,70.897,87.73z
				 M36.992,152.243c8.816,2.074,16.523,7.783,20.998,15.853c3.159,5.698,4.455,12.141,3.925,18.456
				c-0.623,2.561-1.207,5.136-1.741,7.72c-8.762-2.099-16.415-7.79-20.865-15.821C34.836,170.381,34.077,160.82,36.992,152.243z
				 M22.184,223.599c0.541-0.027,1.082-0.04,1.625-0.04c8.661,0,16.805,3.373,22.93,9.5c4.687,4.685,7.732,10.641,8.921,16.976
				c0.104,2.539,0.237,5.069,0.424,7.586c-0.505,0.022-1.01,0.038-1.517,0.038c-8.66,0-16.804-3.374-22.931-9.498
				C25.111,241.634,21.746,232.649,22.184,223.599z M43.472,317.279c-8.07-4.472-13.781-12.184-15.855-21.004
				c3.376-1.152,6.933-1.749,10.528-1.749c5.451,0,10.874,1.408,15.683,4.075c5.75,3.188,10.294,8.023,13.188,13.727
				c0.815,2.455,1.666,4.892,2.562,7.309c-3.345,1.13-6.863,1.718-10.421,1.718C53.705,321.354,48.282,319.946,43.472,317.279z
				 M81.238,381.304c-2.451,0-4.917-0.284-7.336-0.842c-8.991-2.075-16.606-7.909-21.028-15.816
				c5.4-3.757,11.869-5.833,18.499-5.833c2.45,0,4.917,0.283,7.335,0.842c6.631,1.531,12.51,5.111,16.915,10.054
				c1.341,1.944,2.709,3.866,4.109,5.767C94.33,379.229,87.864,381.304,81.238,381.304z M120.57,432.808
				c-9.343,0.49-18.171-2.996-24.582-9.394c5.729-7.021,14.244-11.45,23.463-11.934c6.83-0.355,13.375,1.416,18.907,4.887
				c1.862,1.54,3.756,3.041,5.666,4.521C138.293,427.902,129.784,432.326,120.57,432.808z M157.191,355.439
				c7.016,5.729,11.44,14.241,11.923,23.456c0.481,9.214-3.027,18.143-9.405,24.573c-7.016-5.73-11.439-14.242-11.923-23.457
				C147.302,370.798,150.812,361.871,157.191,355.439z M179.859,470.264c-8.697,2.993-18.344,2.083-26.22-2.262
				c3.574-8.325,10.537-14.928,19.263-17.933c6.244-2.149,12.973-2.277,19.186-0.577c2.312,1.014,4.638,1.998,6.988,2.938
				C195.49,460.71,188.548,467.271,179.859,470.264z M209.393,431.274c-8.325-3.576-14.924-10.538-17.928-19.264
				c-3.004-8.725-2.09-18.274,2.267-26.214c8.325,3.573,14.924,10.535,17.929,19.26
				C214.664,413.782,213.751,423.331,209.393,431.274z M543.125,223.559c0.543,0,1.084,0.013,1.625,0.04
				c0.438,9.048-2.927,18.034-9.451,24.561c-6.124,6.125-14.271,9.498-22.932,9.498c-0.506,0-1.012-0.016-1.516-0.038
				c0.187-2.517,0.32-5.046,0.424-7.584c1.188-6.334,4.234-12.293,8.922-16.979C526.32,226.931,534.462,223.559,543.125,223.559z
				 M508.943,168.098c4.473-8.07,12.181-13.78,20.999-15.854c2.911,8.575,2.153,18.139-2.321,26.209
				c-4.449,8.029-12.103,13.72-20.864,15.821c-0.533-2.585-1.118-5.158-1.74-7.72C504.487,180.241,505.785,173.796,508.943,168.098z
				 M480.224,108.759c2.075-8.991,7.911-16.606,15.812-21.029c5.164,7.442,7.072,16.844,4.996,25.835
				c-2.065,8.95-7.859,16.535-15.711,20.968c-1.196-2.269-2.433-4.518-3.707-6.751C479.298,121.804,478.739,115.179,480.224,108.759
				z M462.75,248.159c-6.527-6.525-9.89-15.512-9.452-24.561c0.54-0.027,1.081-0.04,1.624-0.04c8.661,0,16.806,3.374,22.932,9.5
				c6.527,6.526,9.893,15.512,9.453,24.558c-0.541,0.028-1.084,0.041-1.627,0.041C477.018,257.658,468.876,254.284,462.75,248.159z
				 M474.724,313.141c-8.817-2.074-16.526-7.784-21.001-15.857c-4.475-8.068-5.231-17.631-2.318-26.209
				c8.817,2.074,16.526,7.785,20.998,15.857C476.879,295.002,477.637,304.564,474.724,313.141z M484.097,200.775
				c-3.376,1.152-6.934,1.748-10.53,1.748c-5.452,0-10.874-1.407-15.681-4.071c-8.073-4.476-13.783-12.188-15.857-21.008
				c3.377-1.152,6.932-1.749,10.528-1.749c5.45,0,10.873,1.409,15.683,4.075C476.313,184.245,482.024,191.955,484.097,200.775z
				 M428.76,66.335c8.965,1.586,16.862,6.851,21.797,14.748c4.893,7.828,6.149,17.347,3.684,26.067
				c-8.965-1.587-16.862-6.852-21.797-14.748C427.552,84.574,426.295,75.057,428.76,66.335z M418.477,136.189
				c5.402-3.756,11.875-5.832,18.503-5.832c2.448,0,4.915,0.282,7.334,0.84c8.992,2.076,16.607,7.913,21.03,15.817
				c-5.402,3.758-11.871,5.835-18.503,5.835c-2.448,0-4.914-0.284-7.331-0.841C430.517,149.931,422.901,144.095,418.477,136.189z
				 M436.501,316.185c7.905,4.424,13.74,12.038,15.816,21.027c2.076,8.992,0.166,18.396-4.998,25.836
				c-7.902-4.423-13.738-12.038-15.812-21.03C429.432,333.027,431.339,323.625,436.501,316.185z M357.539,431.274
				c-4.358-7.94-5.273-17.491-2.269-26.215c3.004-8.726,9.604-15.688,17.927-19.263c4.358,7.939,5.272,17.49,2.271,26.215
				C372.465,420.735,365.864,427.698,357.539,431.274z M387.075,470.264c-8.691-2.993-15.632-9.555-19.218-17.834
				c2.388-0.954,4.752-1.955,7.101-2.987c2.757-0.753,5.615-1.151,8.513-1.151c3.579,0,7.132,0.598,10.558,1.775
				c8.727,3.007,15.691,9.609,19.264,17.935C405.415,472.348,395.77,473.255,387.075,470.264z M419.146,380.016
				c-0.48,9.212-4.905,17.725-11.921,23.455c-6.378-6.433-9.888-15.361-9.405-24.574c0.481-9.213,4.907-17.726,11.924-23.455
				C416.122,361.872,419.63,370.799,419.146,380.016z M448.103,432.854c-0.577,0-1.157-0.016-1.741-0.047
				c-9.212-0.481-17.722-4.904-23.451-11.921c1.912-1.481,3.805-2.984,5.669-4.525c5.531-3.471,12.073-5.244,18.902-4.882
				c9.217,0.482,17.734,4.911,23.463,11.934C464.933,429.413,456.776,432.854,448.103,432.854z M493.029,380.462
				c-2.419,0.558-4.884,0.842-7.332,0.842h-0.002c-6.626,0-13.094-2.075-18.494-5.829c1.397-1.9,2.767-3.82,4.107-5.764
				c4.406-4.944,10.283-8.525,16.917-10.057c2.416-0.559,4.883-0.842,7.333-0.842c6.629,0,13.101,2.076,18.503,5.834
				C509.636,372.552,502.022,378.387,493.029,380.462z M523.459,317.281c-4.808,2.664-10.229,4.073-15.683,4.073
				c-3.558,0-7.078-0.588-10.421-1.718c0.896-2.414,1.744-4.849,2.561-7.3c2.892-5.707,7.438-10.545,13.191-13.735
				c4.808-2.666,10.229-4.075,15.682-4.075c3.597,0,7.152,0.597,10.53,1.749C537.245,305.098,531.532,312.807,523.459,317.281z"/>
			<path fill="#F0A85E" d="M223.948,501.099c-6.098,0-11.072,4.972-11.072,11.072c0,6.099,4.974,11.07,11.072,11.07
				s11.071-4.972,11.071-11.07C235.02,506.071,230.046,501.099,223.948,501.099z"/>
			<path fill="#F0A85E" d="M342.986,501.099c-6.097,0-11.071,4.972-11.071,11.072c0,6.099,4.975,11.07,11.071,11.07
				c6.099,0,11.07-4.972,11.07-11.07C354.057,506.071,349.085,501.099,342.986,501.099z"/>
		</g>
	</g>
</g>
</svg>
