<?xml version="1.0" encoding="utf-8"?>
<!-- Generator: Adobe Illustrator 16.0.0, SVG Export Plug-In . SVG Version: 6.00 Build 0)  -->
<!DOCTYPE svg PUBLIC "-//W3C//DTD SVG 1.1//EN" "http://www.w3.org/Graphics/SVG/1.1/DTD/svg11.dtd">
<svg version="1.1" id="Capa_1" xmlns="http://www.w3.org/2000/svg" xmlns:xlink="http://www.w3.org/1999/xlink" x="0px" y="0px"
	 width="566.93px" height="566.93px" viewBox="0 0 566.93 566.93" enable-background="new 0 0 566.93 566.93" xml:space="preserve">
<g>
	<g>
		<path fill="#F0A85E" d="M266.566,483.557c-21.812-1.689-42.694-6.677-62.184-14.424c9.005-11.978,11.639-27.729,6.576-42.319
			c-6.127-17.654-22.149-29.674-40.819-30.62c-2.157-0.119-4.265,0.623-5.888,2.044c-11.217,9.813-16.746,24.107-15.425,38.447
			c-5.305-4.271-10.405-8.783-15.283-13.522c12.745-7.412,21.25-20.614,22.461-35.784c1.488-18.626-8.35-36.073-25.063-44.446
			c-1.929-0.967-4.157-1.144-6.214-0.496c-14.604,4.599-25.616,15.94-29.942,30.127c-3.482-6.266-6.667-12.713-9.523-19.33
			c13.878-1.151,26.661-8.602,34.49-20.736c10.128-15.701,9.723-35.727-1.036-51.017c-1.241-1.765-3.119-2.976-5.237-3.38
			c-16.821-3.203-33.674,3.15-44.172,16.306c-0.922-7.554-1.432-15.219-1.538-22.969c4.17,1.218,8.452,1.845,12.726,1.845
			c9.918,0,19.776-3.255,28.005-9.66c14.747-11.478,20.976-30.514,15.871-48.497c-0.589-2.075-1.962-3.84-3.829-4.918
			c-13.965-8.083-30.758-8.165-44.576-0.66c2.293-8.063,5.042-15.979,8.248-23.706c8.042,6.316,17.902,9.711,28.028,9.711
			c4.688,0,9.433-0.726,14.078-2.223c17.786-5.727,30.164-21.473,31.531-40.118c0.159-2.15-0.528-4.278-1.911-5.933
			c-9.703-11.607-24.155-17.465-38.741-16.242c5.896-7.137,12.272-13.927,19.114-20.312c6.485,3.303,13.551,4.967,20.63,4.967
			c8.504,0,17.023-2.395,24.563-7.206c15.751-10.054,23.727-28.427,20.318-46.807c-0.393-2.121-1.596-4.004-3.354-5.254
			c-15.236-10.832-35.26-11.334-51.011-1.279c-14.388,9.184-22.282,25.31-20.944,42.041c-10.533,9.657-20.07,20.19-28.547,31.442
			c-0.016-0.049-0.029-0.098-0.044-0.146c-5.728-17.787-21.475-30.163-40.119-31.53c-2.149-0.158-4.277,0.528-5.933,1.912
			c-14.343,11.989-19.909,31.229-14.182,49.016c4.851,15.065,16.893,26.246,31.791,30.147c-4.509,10.666-8.211,21.672-11.092,32.926
			c-11.574-13.672-29.921-19.321-47.288-14.388c-2.075,0.589-3.838,1.961-4.918,3.829c-9.364,16.18-8,36.163,3.478,50.909
			c8.816,11.328,22.09,17.63,35.924,17.63c1.84,0,3.691-0.132,5.542-0.358c0.005,9.981,0.657,19.881,1.909,29.654
			c-15.068-7.883-33.234-6.803-47.364,3.139c-1.764,1.24-2.976,3.119-3.379,5.236c-3.497,18.365,4.391,36.775,20.093,46.904
			c7.582,4.89,16.169,7.323,24.746,7.323c7.19,0,14.369-1.72,20.941-5.129c4.641,11.462,10.203,22.551,16.647,33.169
			c-18.431-1.26-35.642,8.533-43.939,25.096c-0.967,1.928-1.144,4.155-0.496,6.213c5.615,17.83,21.278,30.312,39.905,31.802
			c1.24,0.099,2.474,0.147,3.702,0.147c14.467,0,27.866-6.813,36.417-18.248c8.384,8.277,17.326,15.851,26.735,22.692
			c-0.093,0.031-0.186,0.059-0.279,0.091c-17.653,6.127-29.672,22.149-30.62,40.819c-0.109,2.153,0.624,4.265,2.044,5.888
			c8.862,10.128,21.374,15.624,34.276,15.624c5.02,0,10.103-0.833,15.047-2.55c14.893-5.168,25.777-17.381,29.385-32.285
			c21.653,8.69,44.673,14.118,68.389,15.955c0.218,0.018,0.436,0.024,0.65,0.024c4.294,0,7.933-3.309,8.269-7.662
			C274.558,487.904,271.138,483.911,266.566,483.557z M156.393,69.141c9.042-5.772,20.296-6.076,29.531-1.015
			c0.7,10.506-4.314,20.588-13.355,26.359c-9.042,5.772-20.295,6.075-29.531,1.015C142.339,84.993,147.353,74.913,156.393,69.141z
			 M94.534,164.407c0.096-0.173,0.183-0.349,0.276-0.523c0.693-1.25,1.398-2.495,2.117-3.731c3.551-5.205,8.782-9.219,15.085-11.25
			c10.21-3.288,21.174-0.723,28.822,6.512c-1.99,10.34-9.397,18.82-19.607,22.107c-10.208,3.288-21.172,0.723-28.821-6.512
			C92.85,168.702,93.579,166.493,94.534,164.407z M53.496,142.785c-3.289-10.21-0.724-21.173,6.511-28.822
			c10.34,1.99,18.821,9.396,22.107,19.607c2.27,7.047,1.748,14.452-1.17,20.88c-0.427,0.774-0.837,1.558-1.219,2.359
			c-1.137,1.994-2.506,3.875-4.122,5.583C65.263,160.401,56.784,152.995,53.496,142.785z M68.641,248.895
			c0.092-1.003,0.177-2.006,0.282-3.006c0.034-0.286,0.063-0.572,0.092-0.858c0.018-0.16,0.04-0.318,0.058-0.476
			c1.234-6.897,4.961-13.251,10.761-17.767c8.465-6.588,19.643-7.939,29.308-3.761c1.676,10.397-2.377,20.9-10.841,27.488
			c-8.465,6.587-19.644,7.937-29.309,3.76C68.7,252.478,68.594,250.678,68.641,248.895z M52.547,242.645
			c-0.136,0.875-0.253,1.754-0.338,2.639c-0.384,2.263-1.026,4.498-1.958,6.657c-10.399,1.669-20.9-2.379-27.489-10.843
			c-6.587-8.465-7.937-19.644-3.761-29.309c10.396-1.672,20.9,2.379,27.488,10.844C51.037,228.473,53.085,235.607,52.547,242.645z
			 M60.913,340.705c-9.259,5.014-20.513,4.657-29.525-1.157c-9.013-5.813-13.978-15.919-13.228-26.422
			c9.26-5.014,20.513-4.657,29.525,1.157c4.976,3.21,8.711,7.732,10.94,12.902c0.651,2.503,1.351,4.99,2.085,7.466
			C60.981,336.637,61.058,338.663,60.913,340.705z M79.371,336.723c-0.596-1.1-1.109-2.23-1.553-3.379
			c-0.36-1.127-0.709-2.259-1.05-3.394c-0.148-0.77-0.32-1.534-0.507-2.292c-1.155-6.961,0.257-14.246,4.268-20.463
			c5.813-9.015,15.92-13.972,26.422-13.229c5.014,9.26,4.657,20.514-1.157,29.526C99.981,332.508,89.872,337.475,79.371,336.723z
			 M81.509,435.425c-10.692-0.854-19.85-7.405-24.161-17.011c5.782-8.801,15.87-13.817,26.555-12.959
			c7.303,0.583,13.887,3.826,18.703,8.885c0.855,1.059,1.729,2.105,2.604,3.151c1.102,1.544,2.062,3.207,2.855,4.975
			C102.282,431.265,92.203,436.287,81.509,435.425z M122.439,410.217c-1.3-0.854-2.506-1.812-3.634-2.842
			c-1.882-2.23-3.714-4.504-5.505-6.808c-2.903-4.994-4.304-10.852-3.821-16.905c0.854-10.691,7.404-19.85,17.011-24.162
			c8.799,5.783,13.813,15.864,12.959,26.555C138.597,396.747,132.045,405.905,122.439,410.217z M162.063,500.754
			c-10.132,3.515-21.15,1.201-28.96-5.861c1.756-10.382,8.972-19.027,19.105-22.541c6.991-2.428,14.403-2.075,20.892,0.695
			c0.53,0.276,1.066,0.543,1.609,0.799c0.658,0.35,1.314,0.699,1.976,1.041c1.581,0.955,3.086,2.061,4.484,3.326
			C179.412,488.595,172.196,497.238,162.063,500.754z M189.405,461.221c-1.916-0.324-3.77-0.837-5.544-1.516
			c-2.346-1.233-4.66-2.519-6.954-3.834c-4.543-3.396-8.089-8.123-10.044-13.757c-3.517-10.133-1.199-21.15,5.862-28.961
			c10.382,1.757,19.025,8.973,22.542,19.105C198.784,442.392,196.468,453.41,189.405,461.221z"/>
	</g>
</g>
<g>
	<g>
		<path fill="#F0A85E" d="M561.26,301.362c-14.131-9.942-32.298-11.022-47.364-3.138c1.252-9.774,1.904-19.675,1.908-29.655
			c1.852,0.226,3.702,0.358,5.542,0.358c13.834,0,27.11-6.302,35.924-17.63c11.479-14.746,12.843-34.729,3.479-50.909
			c-1.081-1.868-2.845-3.24-4.919-3.829c-17.368-4.931-35.714,0.713-47.288,14.388c-2.88-11.254-6.581-22.261-11.091-32.926
			c14.898-3.901,26.939-15.082,31.791-30.146c5.727-17.787,0.161-37.027-14.183-49.017c-1.654-1.384-3.782-2.066-5.933-1.911
			c-18.645,1.368-34.391,13.744-40.119,31.53c-0.016,0.048-0.028,0.097-0.044,0.146c-8.478-11.251-18.016-21.785-28.547-31.441
			c1.337-16.732-6.557-32.857-20.944-42.042c-15.751-10.053-35.774-9.551-51.012,1.279c-1.759,1.25-2.961,3.135-3.354,5.254
			c-3.408,18.381,4.566,36.753,20.318,46.807c7.539,4.812,16.058,7.206,24.562,7.206c7.078,0,14.145-1.664,20.63-4.966
			c6.841,6.385,13.217,13.176,19.115,20.313c-14.586-1.224-29.038,4.633-38.741,16.24c-1.384,1.656-2.068,3.784-1.911,5.933
			c1.368,18.645,13.744,34.391,31.53,40.118c4.646,1.497,9.389,2.222,14.078,2.222c10.125,0,19.985-3.395,28.027-9.711
			c3.206,7.726,5.956,15.643,8.249,23.706c-13.819-7.505-30.613-7.423-44.576,0.66c-1.867,1.081-3.24,2.845-3.829,4.918
			c-5.104,17.983,1.125,37.019,15.872,48.497c8.228,6.403,18.087,9.66,28.005,9.66c4.274,0,8.557-0.626,12.727-1.846
			c-0.106,7.75-0.617,15.417-1.538,22.97c-10.499-13.154-27.353-19.506-44.172-16.307c-2.119,0.404-3.998,1.616-5.237,3.381
			c-10.758,15.289-11.164,35.314-1.035,51.017c7.829,12.136,20.608,19.586,34.489,20.736c-2.856,6.614-6.041,13.062-9.523,19.33
			c-4.326-14.187-15.339-25.53-29.942-30.127c-2.057-0.65-4.285-0.471-6.214,0.495c-16.714,8.374-26.552,25.821-25.063,44.447
			c1.211,15.169,9.716,28.371,22.461,35.782c-4.878,4.738-9.978,9.252-15.282,13.521c1.319-14.338-4.208-28.633-15.425-38.447
			c-1.623-1.42-3.733-2.152-5.889-2.044c-18.67,0.947-34.691,12.967-40.817,30.62c-5.062,14.588-2.431,30.341,6.574,42.319
			c-19.49,7.749-40.371,12.736-62.184,14.425c-4.572,0.353-7.991,4.347-7.637,8.92c0.338,4.354,3.975,7.662,8.27,7.662
			c0.215,0,0.433-0.008,0.649-0.024c23.716-1.837,46.736-7.265,68.39-15.954c3.608,14.903,14.49,27.116,29.384,32.283
			c4.946,1.718,10.026,2.552,15.048,2.552c12.899,0,25.416-5.498,34.276-15.625c1.42-1.623,2.153-3.736,2.044-5.889
			c-0.948-18.67-12.967-34.691-30.62-40.817c-0.093-0.032-0.186-0.061-0.279-0.091c9.411-6.842,18.352-14.416,26.735-22.693
			c8.553,11.437,21.949,18.248,36.417,18.248c1.226,0,2.462-0.049,3.701-0.146c18.627-1.49,34.291-13.971,39.905-31.803
			c0.648-2.058,0.47-4.285-0.496-6.213c-8.298-16.562-25.504-26.361-43.938-25.096c6.444-10.617,12.005-21.706,16.646-33.168
			c6.573,3.41,13.751,5.129,20.942,5.129c8.576,0,17.165-2.435,24.745-7.323c15.702-10.128,23.59-28.539,20.093-46.903
			C564.233,304.481,563.023,302.604,561.26,301.362z M520.438,222.631c6.587-8.465,17.092-12.51,27.488-10.844
			c4.175,9.667,2.827,20.845-3.761,29.309c-6.587,8.465-17.088,12.518-27.488,10.844c-0.934-2.159-1.574-4.395-1.959-6.658
			c-0.084-0.883-0.201-1.762-0.338-2.636C513.842,235.608,515.891,228.474,520.438,222.631z M423.89,95.499
			c-9.237,5.058-20.492,4.755-29.531-1.015c-9.042-5.771-14.055-15.851-13.355-26.359c9.235-5.057,20.489-4.756,29.531,1.015
			C419.575,74.911,424.588,84.992,423.89,95.499z M445.698,177.521c-10.21-3.289-17.617-11.768-19.606-22.107
			c7.649-7.235,18.615-9.8,28.821-6.512c6.304,2.03,11.534,6.042,15.085,11.247c0.721,1.241,1.429,2.489,2.124,3.743
			c0.091,0.17,0.177,0.344,0.27,0.514c0.956,2.086,1.685,4.294,2.129,6.603C466.873,178.248,455.909,180.81,445.698,177.521z
			 M487.202,156.807c-0.382-0.8-0.793-1.584-1.22-2.358c-2.918-6.427-3.438-13.832-1.17-20.88
			c3.287-10.21,11.767-17.617,22.106-19.607c7.236,7.648,9.8,18.613,6.511,28.821c-3.287,10.21-11.767,17.617-22.106,19.607
			C489.708,160.683,488.339,158.801,487.202,156.807z M497.937,254.276c-9.666,4.173-20.844,2.826-29.309-3.76
			c-8.465-6.587-12.517-17.092-10.842-27.488c9.664-4.176,20.842-2.828,29.309,3.761c5.8,4.514,9.526,10.869,10.761,17.767
			c0.018,0.159,0.039,0.318,0.058,0.477c0.028,0.286,0.058,0.571,0.092,0.856c0.104,1.001,0.191,2.004,0.282,3.007
			C498.335,250.68,498.228,252.48,497.937,254.276z M377.522,461.22c-7.062-7.811-9.379-18.83-5.861-28.962
			c3.518-10.133,12.16-17.35,22.541-19.105c7.062,7.811,9.379,18.829,5.862,28.961c-1.956,5.634-5.5,10.363-10.045,13.756
			c-2.294,1.316-4.607,2.602-6.953,3.832C381.291,460.384,379.438,460.896,377.522,461.22z M433.826,494.893
			c-7.811,7.062-18.83,9.378-28.961,5.86c-10.133-3.517-17.348-12.158-19.105-22.541c1.4-1.266,2.907-2.373,4.488-3.327
			c0.66-0.342,1.315-0.691,1.972-1.04c0.538-0.255,1.071-0.52,1.599-0.795c6.493-2.774,13.909-3.129,20.903-0.701
			C424.854,475.868,432.069,484.511,433.826,494.893z M453.629,400.566c-1.793,2.304-3.623,4.576-5.504,6.805
			c-1.129,1.031-2.336,1.99-3.637,2.845c-9.605-4.312-16.156-13.469-17.011-24.162c-0.854-10.689,4.159-20.771,12.959-26.555
			c9.607,4.313,16.158,13.47,17.012,24.162C457.933,389.716,456.531,395.573,453.629,400.566z M483.025,405.452
			c10.694-0.863,20.772,4.159,26.555,12.96c-4.312,9.606-13.47,16.156-24.161,17.01c-10.698,0.86-20.772-4.157-26.555-12.958
			c0.794-1.769,1.754-3.432,2.855-4.976c0.876-1.045,1.749-2.093,2.604-3.151C469.139,409.28,475.723,406.036,483.025,405.452z
			 M490.665,327.664c-0.187,0.757-0.357,1.519-0.506,2.287c-0.341,1.134-0.689,2.266-1.048,3.392c-0.444,1.15-0.959,2.28-1.555,3.38
			c-10.502,0.749-20.609-4.215-26.424-13.227c-5.812-9.014-6.171-20.268-1.157-29.527c10.508-0.75,20.608,4.217,26.423,13.229
			C490.411,313.415,491.82,320.702,490.665,327.664z M535.541,339.549c-9.014,5.813-20.268,6.169-29.525,1.157
			c-0.146-2.043-0.069-4.067,0.205-6.052c0.734-2.478,1.434-4.963,2.085-7.466c2.228-5.171,5.963-9.694,10.94-12.903
			c9.012-5.812,20.265-6.172,29.524-1.157C549.52,323.631,544.555,333.734,535.541,339.549z"/>
	</g>
</g>
</svg>
