<?xml version="1.0" encoding="utf-8"?>
<!-- Generator: Adobe Illustrator 16.0.0, SVG Export Plug-In . SVG Version: 6.00 Build 0)  -->
<!DOCTYPE svg PUBLIC "-//W3C//DTD SVG 1.1//EN" "http://www.w3.org/Graphics/SVG/1.1/DTD/svg11.dtd">
<svg version="1.1" id="Capa_1" xmlns="http://www.w3.org/2000/svg" xmlns:xlink="http://www.w3.org/1999/xlink" x="0px" y="0px"
	 width="566.93px" height="566.93px" viewBox="0 0 566.93 566.93" enable-background="new 0 0 566.93 566.93" xml:space="preserve">
<path fill="#F0A85E" d="M320.469,390.65c4.43-3.543,7.973-7.973,12.402-12.402c10.63-9.744,21.26-19.488,27.46-27.46
	c8.858-9.744,10.63-23.917,4.43-33.661c-4.43-7.973-14.174-12.402-23.918-12.402c-7.086,0-13.287,1.771-18.602,6.201l-114.272,69.98
	h-10.63c-21.26,0-40.748,7.973-56.693,21.26l-23.031,20.374c-3.543,3.543-4.429,8.858-0.886,12.401
	c3.543,3.544,8.858,3.544,12.401,0.886l23.032-20.374c12.401-10.63,28.346-16.83,44.291-16.83l69.095,5.314l34.548,3.543h0.885
	c0.887,0,1.771,0,2.658-0.886l120.473,9.744c2.657,0,4.429-0.886,6.2-1.771l118.701-94.783v31.004l-127.56,118.701H221.256
	c-2.657,0-5.315,0.886-6.201,2.657l-70.866,79.725c-3.543,3.543-2.657,8.858,0.886,12.401c1.772,1.771,3.543,2.657,6.201,2.657
	c2.658,0,4.429-0.886,6.201-2.657l68.208-77.067h199.312c2.657,0,4.429-0.886,6.2-2.657l132.875-124.016
	c1.771-1.772,2.657-4.429,2.657-6.201v-53.149c0-3.543-1.771-6.201-5.315-7.973c-2.657-1.771-7.086-0.886-9.744,0.887
	L422.34,398.623L320.469,390.65z M238.973,383.563l93.012-56.692c0,0,0.886,0,0.886-0.887c3.543-2.657,6.2-2.657,7.972-2.657
	c3.544,0,7.087,1.772,8.858,3.544c1.772,2.657,1.772,7.973-2.657,13.287c-5.314,7.086-15.944,16.83-25.688,25.689
	c-8.858,7.972-17.717,15.944-23.918,23.031l-30.118-2.658L238.973,383.563z"/>
<path fill="#F0A85E" d="M94.583,466.831l8.858-7.972c3.543-3.544,4.429-8.858,0.886-12.402c-3.543-3.543-8.858-4.429-12.401-0.886
	l-8.858,7.973c-3.543,3.543-4.429,8.858-0.886,12.401c1.771,2.658,3.543,3.544,6.201,3.544
	C90.154,469.489,92.812,468.604,94.583,466.831z"/>
<path fill="#F0A85E" d="M14.859,537.697l53.149-46.948c3.543-3.544,4.429-8.858,0.886-12.401c-3.543-3.544-8.858-3.544-12.401-0.887
	L3.343,524.41c-3.543,3.543-4.429,8.858-0.886,12.401c1.771,2.658,3.543,3.544,6.201,3.544
	C10.43,540.355,13.087,539.47,14.859,537.697z"/>
<g>
	<path fill="#F0A85E" d="M221.256,106.3c-5.315,0-8.858,3.543-8.858,8.858V256.89c0,5.315,3.543,8.858,8.858,8.858h248.032
		c5.315,0,8.858-3.543,8.858-8.858V115.158c0-5.315-3.543-8.858-8.858-8.858H221.256z M460.43,158.563v54.921
		c-17.716,3.543-31.004,16.831-34.547,34.547H264.662c-3.543-17.717-16.831-31.004-34.547-34.547v-54.921
		c17.716-3.543,31.004-16.831,34.547-34.547h161.221C429.426,141.732,442.714,155.02,460.43,158.563z M246.06,124.016
		c-2.657,7.086-8.858,13.288-15.945,15.945v-15.945H246.06z M230.115,232.087c7.086,2.658,13.288,8.858,15.945,15.945h-15.945
		V232.087z M444.485,248.032c2.657-7.087,8.858-13.288,15.944-15.945v15.945H444.485z M460.43,139.961
		c-7.086-2.657-13.287-8.858-15.944-15.945h15.944V139.961z"/>
	<path fill="#F0A85E" d="M345.272,230.315c24.803,0,44.291-19.488,44.291-44.292s-19.488-44.292-44.291-44.292
		c-24.804,0-44.292,19.488-44.292,44.292S320.469,230.315,345.272,230.315z M345.272,159.449c15.059,0,26.575,11.516,26.575,26.575
		s-11.517,26.575-26.575,26.575c-15.06,0-26.575-11.516-26.575-26.575S330.213,159.449,345.272,159.449z"/>
</g>
<path fill="#F0A85E" d="M442.714,70.866H185.823c-5.315,0-8.858,3.543-8.858,8.858v150.591c0,5.315,3.543,8.858,8.858,8.858
	s8.858-3.543,8.858-8.858V88.583h248.032c5.314,0,8.857-3.543,8.857-8.858S448.028,70.866,442.714,70.866z"/>
<path fill="#F0A85E" d="M407.28,35.434H150.39c-5.315,0-8.858,3.543-8.858,8.858v150.591c0,5.315,3.543,8.858,8.858,8.858
	s8.858-3.543,8.858-8.858V53.15H407.28c5.315,0,8.858-3.543,8.858-8.858S412.596,35.434,407.28,35.434z"/>
<path fill="#F0A85E" d="M371.848,0H114.957c-5.315,0-8.858,3.543-8.858,8.858v150.591c0,5.315,3.543,8.858,8.858,8.858
	s8.858-3.543,8.858-8.858V17.717h248.032c5.314,0,8.857-3.543,8.857-8.858S377.162,0,371.848,0z"/>
</svg>
