<?xml version="1.0" encoding="utf-8"?>
<!-- Generator: Adobe Illustrator 16.0.0, SVG Export Plug-In . SVG Version: 6.00 Build 0)  -->
<!DOCTYPE svg PUBLIC "-//W3C//DTD SVG 1.1//EN" "http://www.w3.org/Graphics/SVG/1.1/DTD/svg11.dtd">
<svg version="1.1" id="Layer_1" xmlns="http://www.w3.org/2000/svg" xmlns:xlink="http://www.w3.org/1999/xlink" x="0px" y="0px"
	 width="566.93px" height="566.93px" viewBox="0 0 566.93 566.93" enable-background="new 0 0 566.93 566.93" xml:space="preserve">
<g transform="translate(1 1)">
	<g>
		<g>
			<path fill="#F0A85E" d="M301.269,372.201h151.134c5.667,0,9.445-3.777,9.445-9.445v-85.013c0-5.668-3.778-9.446-9.445-9.446
				H301.269c-5.667,0-9.446,3.778-9.446,9.446v85.013C291.822,368.422,295.602,372.201,301.269,372.201z M310.714,287.188h132.243
				v66.12H310.714V287.188z"/>
			<path fill="#F0A85E" d="M46.23,249.404h75.567c5.667,0,9.445-3.778,9.445-9.446s-3.778-9.445-9.445-9.445H46.23
				c-5.668,0-9.446,3.778-9.446,9.445S40.562,249.404,46.23,249.404z"/>
			<path fill="#F0A85E" d="M159.58,249.404h75.567c5.668,0,9.446-3.778,9.446-9.446s-3.778-9.445-9.446-9.445H159.58
				c-5.667,0-9.445,3.778-9.445,9.445S153.913,249.404,159.58,249.404z"/>
			<path fill="#F0A85E" d="M46.23,287.188h122.796c5.667,0,9.445-3.778,9.445-9.446s-3.778-9.445-9.445-9.445H46.23
				c-5.668,0-9.446,3.778-9.446,9.445S40.562,287.188,46.23,287.188z"/>
			<path fill="#F0A85E" d="M235.146,268.296h-28.337c-5.667,0-9.446,3.778-9.446,9.445s3.778,9.446,9.446,9.446h28.337
				c5.667,0,9.446-3.778,9.446-9.446S240.814,268.296,235.146,268.296z"/>
			<path fill="#F0A85E" d="M557.251,151.168c-6.611-8.501-15.112-13.225-25.504-14.169l-22.67-2.748v-26.536V88.825
				c0-20.781-17.002-37.783-37.783-37.783H36.783C16.002,51.041-1,68.043-1,88.825v18.892v75.567v207.809
				c0,17.061,11.464,31.567,27.068,36.217c-0.476,19.107,13.982,35.696,33.387,37.461l436.399,49.118c0.944,0,2.834,0,3.778,0
				c18.892,0,35.895-14.169,37.783-32.116l28.338-303.212C566.697,169.115,563.863,158.724,557.251,151.168z M17.892,117.163
				h472.294v24.56v32.116H17.892V117.163z M36.783,69.933h434.51c10.391,0,18.893,8.501,18.893,18.893v9.445H17.892v-9.445
				C17.892,78.434,26.394,69.933,36.783,69.933z M17.892,391.092V192.729h472.294v198.363c0,10.392-8.502,18.893-18.893,18.893
				H37.729h-0.944C26.394,409.984,17.892,401.483,17.892,391.092z M546.86,174.782l-28.338,303.213
				c-0.943,10.391-10.391,17.946-20.78,17.002L62.287,445.879c-9.446-0.944-16.059-8.501-17.002-17.002h426.008
				c20.78,0,37.783-17.003,37.783-37.783V183.283v-31.171l21.726,1.89c4.724,0,9.446,2.834,12.279,6.612
				C545.916,164.391,547.806,170.059,546.86,174.782z"/>
		</g>
	</g>
</g>
</svg>
