<?xml version="1.0" encoding="utf-8"?>
<!-- Generator: Adobe Illustrator 16.0.0, SVG Export Plug-In . SVG Version: 6.00 Build 0)  -->
<!DOCTYPE svg PUBLIC "-//W3C//DTD SVG 1.1//EN" "http://www.w3.org/Graphics/SVG/1.1/DTD/svg11.dtd">
<svg version="1.1" id="Capa_1" xmlns="http://www.w3.org/2000/svg" xmlns:xlink="http://www.w3.org/1999/xlink" x="0px" y="0px"
	 width="566.93px" height="566.93px" viewBox="0 0 566.93 566.93" enable-background="new 0 0 566.93 566.93" xml:space="preserve">
<g>
	<g>
		<g>
			<path fill="#F0A85E" d="M290.477,368.566c-9.249-2.469-18.801-3.721-28.392-3.721c-1.966,0-3.921,0.056-5.868,0.158
				c17.208-21.865,23.398-50.938,16.121-78.186c-1.023-3.828-4.012-6.818-7.842-7.841c-7.506-2.004-15.264-3.021-23.052-3.021
				c-1.533,0-3.062,0.041-4.583,0.118c13.27-17.264,17.985-40.024,12.284-61.375c-1.023-3.829-4.012-6.819-7.842-7.843
				c-5.716-1.526-11.613-2.322-17.542-2.383c6.864-12.259,8.881-26.934,5.169-40.841c-1.023-3.829-4.014-6.819-7.842-7.842
				c-4.6-1.227-9.351-1.851-14.12-1.851c-4.148,0-8.221,0.475-12.167,1.37c0.073-1.147,0.115-2.3,0.115-3.458
				c0-19.42-10.452-37.532-27.278-47.267c-3.431-1.984-7.66-1.984-11.091,0c-16.827,9.734-27.28,27.845-27.28,47.267
				c0,1.158,0.041,2.311,0.115,3.458c-3.946-0.896-8.019-1.37-12.165-1.37c-4.771,0-9.521,0.622-14.12,1.851
				c-3.828,1.023-6.818,4.013-7.842,7.84c-3.714,13.905-1.697,28.582,5.167,40.842c-5.928,0.062-11.826,0.857-17.542,2.383
				c-3.83,1.023-6.818,4.014-7.842,7.843c-5.7,21.35-0.986,44.111,12.284,61.375c-1.52-0.076-3.047-0.117-4.581-0.117
				c-7.788,0-15.545,1.017-23.052,3.021c-3.83,1.023-6.818,4.013-7.842,7.841c-7.277,27.25-1.089,56.32,16.119,78.186
				c-1.947-0.103-3.901-0.158-5.866-0.158c-9.593,0-19.146,1.253-28.394,3.721c-3.828,1.023-6.818,4.013-7.839,7.842
				c-10.083,37.759,0.8,78.359,28.402,105.958c20.716,20.717,48.262,32.126,77.562,32.126c6.44,0,12.861-0.577,19.187-1.696v43.062
				c0,6.115,4.957,11.072,11.073,11.072c6.113,0,11.073-4.957,11.073-11.072v-43.062c6.324,1.119,12.745,1.696,19.185,1.696
				c0.002,0,0,0,0.002,0c29.298,0,56.846-11.41,77.56-32.126c27.602-27.599,38.486-68.199,28.402-105.958
				C297.295,372.579,294.305,369.588,290.477,368.566z M109.583,467.945l24.354,24.353c-0.703,0.017-1.403,0.049-2.104,0.049
				c-23.385,0-45.369-9.105-61.902-25.641c-20.482-20.48-29.429-49.933-24.118-78.196c5.361-1.01,10.816-1.52,16.289-1.52
				c23.383,0,45.367,9.107,61.902,25.642c17.067,17.066,26.116,40.36,25.59,64.005l-24.352-24.352
				c-4.325-4.324-11.334-4.324-15.66,0C105.261,456.609,105.261,463.62,109.583,467.945z M148.758,375.888
				c-3.59,0.589-7.229,0.885-10.882,0.885c-17.873,0-34.673-6.959-47.309-19.595C75.293,341.902,68.414,320.1,71.86,298.984
				c3.59-0.588,7.232-0.885,10.883-0.885c17.87,0,34.672,6.96,47.309,19.595C145.327,332.971,152.206,354.773,148.758,375.888z
				 M149.273,281.092c-1.987,0.247-3.992,0.371-6.001,0.371c-12.95,0-25.125-5.043-34.283-14.202
				c-10.614-10.613-15.636-25.579-13.825-40.287c1.985-0.247,3.987-0.37,5.997-0.37c12.949,0,25.127,5.043,34.285,14.202
				C146.06,251.422,151.081,266.389,149.273,281.092z M149.602,210.143c-0.541,0.026-1.082,0.04-1.625,0.04
				c-8.661,0-16.807-3.373-22.931-9.497c-6.526-6.526-9.889-15.512-9.451-24.561c0.538-0.027,1.08-0.04,1.622-0.04
				c8.661,0,16.804,3.373,22.931,9.5C146.674,192.108,150.039,201.093,149.602,210.143z M162.093,175.899
				c-6.707-6.089-10.68-14.82-10.68-24.048c0.001-9.227,3.974-17.958,10.68-24.047c6.707,6.089,10.677,14.82,10.677,24.047
				C172.771,161.079,168.8,169.81,162.093,175.899z M184.037,185.583c6.125-6.125,14.27-9.499,22.931-9.499
				c0.542,0,1.082,0.012,1.622,0.04c0.438,9.051-2.929,18.035-9.455,24.562c-6.122,6.124-14.265,9.496-22.926,9.496c0,0,0,0-0.002,0
				c-0.541,0-1.084-0.013-1.625-0.04C174.144,201.093,177.511,192.11,184.037,185.583z M188.737,240.807
				c9.158-9.159,21.337-14.202,34.287-14.202c2.008,0,4.011,0.123,5.997,0.37c1.81,14.708-3.211,29.673-13.828,40.288
				c-9.157,9.158-21.331,14.201-34.28,14.201c-2.009,0-4.014-0.124-6.001-0.371C173.103,266.39,178.125,251.422,188.737,240.807z
				 M194.135,317.694c12.636-12.635,29.436-19.595,47.309-19.595c3.651,0,7.292,0.296,10.882,0.885
				c3.447,21.114-3.435,42.918-18.708,58.193c-12.636,12.637-29.438,19.595-47.309,19.595c-3.651,0-7.293-0.296-10.883-0.885
				C171.979,354.774,178.861,332.971,194.135,317.694z M254.256,466.706c-16.534,16.535-38.519,25.64-61.904,25.64
				c-0.703,0-1.404-0.032-2.106-0.049l24.355-24.356c4.323-4.323,4.323-11.334,0-15.659c-4.325-4.323-11.336-4.323-15.66,0
				l-24.352,24.354c-0.526-23.644,8.523-46.938,25.591-64.005c16.536-16.536,38.519-25.642,61.904-25.642
				c5.471,0,10.925,0.51,16.287,1.52C283.683,416.774,274.736,446.227,254.256,466.706z"/>
			<path fill="#F0A85E" d="M221.578,429.65l-0.184,0.187c-4.299,4.35-4.258,11.361,0.091,15.659
				c2.158,2.134,4.972,3.199,7.783,3.199c2.854,0,5.709-1.098,7.876-3.29l0.184-0.187c4.3-4.35,4.259-11.36-0.091-15.659
				C232.889,425.26,225.877,425.3,221.578,429.65z"/>
			<path fill="#F0A85E" d="M102.583,429.629c-4.311-4.336-11.322-4.357-15.661-0.045c-4.336,4.312-4.356,11.322-0.045,15.659
				l0.184,0.185c2.165,2.177,5.008,3.267,7.853,3.267c2.825,0,5.647-1.073,7.808-3.22c4.336-4.312,4.358-11.323,0.045-15.661
				L102.583,429.629z"/>
			<path fill="#F0A85E" d="M512.657,84.566c-20.719-20.717-48.265-32.128-77.564-32.128c-6.439,0-12.86,0.577-19.185,1.695v-43.06
				C415.908,4.958,410.949,0,404.835,0c-6.115,0-11.072,4.958-11.072,11.073v43.062c-6.326-1.118-12.747-1.696-19.188-1.696
				c-29.3,0-56.843,11.411-77.562,32.128c-27.603,27.6-38.487,68.201-28.402,105.956c1.021,3.829,4.012,6.819,7.839,7.841
				c9.246,2.469,18.799,3.721,28.395,3.721c0.002,0,0.002,0,0.006,0c1.96,0,3.912-0.055,5.856-0.157
				c-17.208,21.864-23.394,50.936-16.116,78.187c1.023,3.829,4.014,6.819,7.842,7.842c7.507,2.003,15.26,3.02,23.047,3.02
				c0.003,0,0.003,0,0.003,0c1.533,0,3.061-0.042,4.583-0.118c-13.268,17.263-17.982,40.022-12.287,61.373
				c1.023,3.83,4.015,6.821,7.845,7.844c5.716,1.526,11.615,2.322,17.543,2.383c-6.863,12.26-8.882,26.934-5.171,40.841
				c1.023,3.829,4.015,6.818,7.842,7.842c4.598,1.229,9.35,1.853,14.12,1.853c0.003,0,0.003,0,0.003,0
				c4.146,0,8.218-0.477,12.164-1.37c-0.073,1.147-0.116,2.299-0.116,3.457c0,19.419,10.454,37.531,27.28,47.269
				c1.718,0.993,3.631,1.489,5.548,1.489c1.913,0,3.83-0.496,5.545-1.489c16.827-9.737,27.28-27.849,27.28-47.269
				c0-1.158-0.041-2.31-0.115-3.457c3.947,0.896,8.017,1.37,12.165,1.37c4.771,0,9.522-0.624,14.122-1.853
				c3.828-1.023,6.818-4.013,7.839-7.842c3.712-13.907,1.693-28.583-5.171-40.841c5.927-0.062,11.824-0.856,17.54-2.383
				c3.83-1.022,6.818-4.012,7.842-7.84c5.702-21.352,0.989-44.112-12.278-61.377c1.521,0.076,3.05,0.118,4.583,0.118
				c7.788,0,15.541-1.017,23.048-3.02c3.83-1.022,6.818-4.013,7.842-7.84c7.279-27.25,1.089-56.322-16.121-78.188
				c1.946,0.102,3.9,0.157,5.865,0.157c9.594,0,19.146-1.252,28.396-3.721c3.827-1.023,6.818-4.013,7.839-7.842
				C551.142,152.766,540.258,112.165,512.657,84.566z M304.85,179.94c-0.001-0.001-0.003-0.001-0.006-0.001
				c-5.473,0-10.93-0.509-16.289-1.519c-5.312-28.262,3.636-57.715,24.118-78.194c16.534-16.536,38.519-25.641,61.901-25.641
				c0.701,0,1.402,0.032,2.102,0.048l-24.354,24.355c-4.325,4.324-4.325,11.335,0,15.66c2.163,2.163,4.996,3.243,7.829,3.243
				c2.835,0,5.668-1.081,7.83-3.243l24.354-24.354c0.526,23.645-8.522,46.939-25.59,64.004
				C350.209,170.835,328.228,179.942,304.85,179.94z M325.48,268.831c-3.648,0-7.288-0.296-10.878-0.885
				c-3.446-21.117,3.433-42.92,18.706-58.193c12.638-12.636,29.44-19.595,47.313-19.595c3.651,0,7.288,0.296,10.878,0.884
				c3.445,21.117-3.437,42.92-18.708,58.192C360.154,261.872,343.353,268.831,325.48,268.831z M343.9,340.325
				c-2.008,0-4.01-0.124-5.997-0.37c-1.806-14.709,3.216-29.675,13.828-40.286c9.157-9.158,21.335-14.2,34.284-14.2
				c2.009,0,4.015,0.123,6.002,0.369c1.806,14.706-3.216,29.674-13.83,40.287C369.027,335.283,356.851,340.325,343.9,340.325z
				 M382.889,381.348c-6.125,6.126-14.27,9.5-22.928,9.5c-0.543,0-1.083-0.015-1.623-0.04c-0.438-9.05,2.927-18.034,9.451-24.562
				c6.124-6.123,14.268-9.496,22.929-9.496c0.542,0,1.085,0.014,1.629,0.041C392.781,365.837,389.415,374.82,382.889,381.348z
				 M404.835,439.127c-6.706-6.09-10.682-14.822-10.682-24.048s3.973-17.957,10.682-24.046c6.707,6.089,10.681,14.82,10.681,24.046
				C415.514,424.305,411.542,433.037,404.835,439.127z M451.332,390.807c-0.54,0.026-1.081,0.039-1.622,0.039
				c-8.663,0-16.809-3.373-22.935-9.5c-6.525-6.525-9.891-15.509-9.451-24.557c0.541-0.026,1.082-0.041,1.625-0.041
				c8.663,0,16.806,3.373,22.931,9.499C448.405,372.771,451.77,381.758,451.332,390.807z M471.761,339.955
				c-1.985,0.247-3.988,0.37-5.997,0.37c-12.949,0-25.125-5.044-34.285-14.2c-10.616-10.616-15.638-25.582-13.827-40.287
				c1.987-0.246,3.991-0.369,6.001-0.369c12.952,0,25.128,5.043,34.287,14.2C468.554,310.281,473.573,325.248,471.761,339.955z
				 M495.068,267.946c-3.59,0.588-7.229,0.885-10.881,0.885c-17.872,0-34.673-6.959-47.311-19.597
				c-15.275-15.275-22.157-37.076-18.71-58.192c3.59-0.588,7.229-0.884,10.878-0.884c17.873,0,34.673,6.959,47.312,19.595
				C491.635,225.03,498.515,246.833,495.068,267.946z M521.113,178.42c-5.361,1.01-10.818,1.519-16.291,1.519
				c-23.383,0-45.369-9.106-61.901-25.64c-17.068-17.069-26.117-40.363-25.591-64.005l24.354,24.354
				c2.162,2.163,4.996,3.243,7.828,3.243c2.836,0,5.669-1.081,7.831-3.243c4.323-4.324,4.323-11.335,0-15.66l-24.355-24.355
				c0.703-0.017,1.403-0.049,2.105-0.049c23.385,0,45.369,9.106,61.904,25.642C517.478,120.705,526.424,150.157,521.113,178.42z"/>
			<path fill="#F0A85E" d="M479.884,121.528c-4.3-4.351-11.311-4.39-15.66-0.091c-4.35,4.298-4.391,11.31-0.091,15.659l0.184,0.187
				c2.167,2.19,5.021,3.289,7.876,3.289c2.812,0,5.625-1.064,7.783-3.198c4.35-4.3,4.391-11.31,0.091-15.659L479.884,121.528z"/>
			<path fill="#F0A85E" d="M329.782,121.526l-0.186,0.187c-4.298,4.35-4.259,11.36,0.091,15.659
				c2.158,2.134,4.972,3.198,7.785,3.198c2.854,0,5.709-1.097,7.874-3.289l0.186-0.187c4.298-4.35,4.259-11.361-0.091-15.659
				C341.093,117.135,334.081,117.174,329.782,121.526z"/>
		</g>
	</g>
</g>
</svg>
