<?xml version="1.0" encoding="utf-8"?>
<!-- Generator: Adobe Illustrator 16.0.0, SVG Export Plug-In . SVG Version: 6.00 Build 0)  -->
<!DOCTYPE svg PUBLIC "-//W3C//DTD SVG 1.1//EN" "http://www.w3.org/Graphics/SVG/1.1/DTD/svg11.dtd">
<svg version="1.1" id="Capa_1" xmlns="http://www.w3.org/2000/svg" xmlns:xlink="http://www.w3.org/1999/xlink" x="0px" y="0px"
	 width="566.93px" height="566.93px" viewBox="0 0 566.93 566.93" enable-background="new 0 0 566.93 566.93" xml:space="preserve">
<g>
	<g>
		<g>
			<path fill="#F0A85E" d="M472.832,105.177c2.834,0,5.668-1.082,7.831-3.242l0.186-0.188c4.323-4.323,4.323-11.334,0-15.66
				c-4.322-4.323-11.334-4.323-15.66,0l-0.186,0.188c-4.325,4.323-4.325,11.334,0,15.66
				C467.163,104.095,469.999,105.177,472.832,105.177z"/>
			<path fill="#F0A85E" d="M523.803,476.825c-0.005-0.004-0.007-0.007-0.012-0.011l-31.305-31.303
				c-0.007-0.009-0.014-0.014-0.02-0.021l-31.301-31.302c-0.005-0.005-0.009-0.01-0.014-0.014L330.443,283.465l108.535-108.536
				l39.04,2.385c0.228,0.016,0.452,0.022,0.679,0.022c4.18,0,8.032-2.364,9.911-6.144l77.162-155.187
				c2.119-4.261,1.277-9.396-2.085-12.759c-3.363-3.365-8.5-4.204-12.76-2.085L395.738,78.319
				c-3.984,1.981-6.395,6.151-6.122,10.591l2.385,39.042L283.465,236.489L174.929,127.953l2.387-39.042
				c0.271-4.44-2.141-8.609-6.122-10.591L16.004,1.16c-4.261-2.12-9.396-1.28-12.76,2.085c-3.364,3.363-4.203,8.5-2.085,12.759
				L78.32,171.19c1.878,3.78,5.729,6.145,9.911,6.145c0.225,0,0.451-0.007,0.678-0.022l39.042-2.385l108.527,108.526
				c0.011,0.011,0,0,0.01,0.011L3.246,516.707c-4.325,4.325-4.325,11.337,0,15.66l31.317,31.319c2.076,2.076,4.893,3.242,7.83,3.242
				s5.753-1.166,7.83-3.242l233.241-233.243l138.969,138.97c0.004,0.002,0.006,0.005,0.009,0.007l62.628,62.629
				c0.003,0.004,0.005,0.006,0.009,0.009l31.629,31.63c2.076,2.076,4.892,3.242,7.828,3.242s5.755-1.166,7.831-3.242l31.316-31.319
				c4.329-4.324,4.329-11.336,0.003-15.661L523.803,476.825z M531.26,35.669l-59.215,119.093l-32.506-1.985l-4.864-4.864
				l23.49-23.486c4.325-4.325,4.325-11.334,0-15.66c-4.322-4.323-11.332-4.323-15.658,0l-23.49,23.489l-4.864-4.864l-1.985-32.508
				L531.26,35.669z M403.356,147.915l15.658,15.658l-21.674,21.676l-11.465-19.854L403.356,147.915z M369.665,181.607l11.463,19.853
				l-15.106,15.107l-11.463-19.854L369.665,181.607z M108.762,124.426l23.491,23.486l-4.865,4.864l-32.506,1.985L35.668,35.667
				l119.094,59.216l-1.987,32.508l-4.864,4.862l-23.491-23.487c-4.325-4.325-11.335-4.325-15.66,0
				c-2.161,2.163-3.242,4.996-3.242,7.831C105.518,119.431,106.6,122.264,108.762,124.426z M169.59,185.251l-21.678-21.678
				l7.824-7.822c0.002-0.002,0.005-0.007,0.009-0.009c0.002-0.002,0.004-0.005,0.006-0.009l7.821-7.818l17.48,17.48L169.59,185.251z
				 M200.906,216.569l-15.105-15.106l11.462-19.855l15.108,15.106L200.906,216.569z M217.119,232.779l11.463-19.855l39.223,39.222
				l-15.659,15.66L217.119,232.779z M42.393,540.195l-15.659-15.657l21.922-21.923l11.463,19.855L42.393,540.195z M76.33,506.257
				l-11.464-19.854l15.108-15.106l11.463,19.854L76.33,506.257z M107.648,474.939l-11.463-19.854l15.105-15.106l11.464,19.854
				L107.648,474.939z M138.968,443.623l-11.464-19.854l210.843-210.843c0.001,0,0,0,0.001-0.002l11.463,19.854L138.968,443.623z
				 M427.963,443.623L299.124,314.782l15.659-15.657l124.642,124.642L427.963,443.623z M459.281,474.939l-15.106-15.106
				l11.463-19.855l15.106,15.106L459.281,474.939z M490.599,506.258l-15.106-15.106l11.465-19.855l15.106,15.108L490.599,506.258z
				 M524.536,540.195l-17.725-17.727l11.462-19.854l21.923,21.923L524.536,540.195z"/>
			<path fill="#F0A85E" d="M101.741,86.086c-4.323-4.32-11.334-4.323-15.659,0c-2.163,2.163-3.245,4.996-3.245,7.831
				c0,2.833,1.082,5.666,3.245,7.829l0.184,0.186c2.163,2.16,4.996,3.242,7.831,3.242c2.833,0,5.666-1.082,7.829-3.242
				c2.163-2.163,3.244-4.996,3.244-7.831c0-2.833-1.082-5.666-3.244-7.829L101.741,86.086z"/>
		</g>
	</g>
</g>
</svg>
